<svg width="21" height="18" viewBox="0 0 21 18" fill="none" xmlns="http://www.w3.org/2000/svg">
<path d="M13.8237 18V14.2704C14.4358 14.164 14.9781 13.9679 15.4506 13.682C15.9297 13.3961 16.3356 13.0404 16.6683 12.615C17.001 12.1895 17.2505 11.7042 17.4168 11.159C17.5898 10.6205 17.6763 10.0388 17.6763 9.41385C17.6763 8.3036 17.3969 7.31967 16.8379 6.46205C16.2856 5.60443 15.4739 4.93296 14.4026 4.44765C13.3379 3.96233 12.0371 3.71967 10.5 3.71967C8.93631 3.71967 7.61882 3.96233 6.54753 4.44765C5.48289 4.93961 4.67776 5.61108 4.13213 6.46205C3.59316 7.31967 3.32367 8.30028 3.32367 9.40388C3.32367 10.0155 3.40352 10.5873 3.56321 11.1191C3.72956 11.6576 3.97243 12.1396 4.29183 12.5651C4.61122 12.9972 5.0038 13.3596 5.46958 13.6521C5.93536 13.9512 6.46768 14.1573 7.06654 14.2704L7.04658 18C6.07509 17.8604 5.1635 17.5579 4.31179 17.0925C3.46008 16.6338 2.70817 16.0321 2.05608 15.2875C1.41065 14.5429 0.904943 13.672 0.538973 12.6748C0.179658 11.6776 -5.32265e-08 10.5706 0 9.35402C7.85309e-08 7.559 0.415875 5.95679 1.24762 4.54737C2.07937 3.13795 3.28042 2.0277 4.85076 1.21662C6.4211 0.40554 8.30418 -9.58987e-08 10.5 0C12.7025 9.61893e-08 14.5856 0.408864 16.1492 1.22659C17.7196 2.04432 18.9206 3.15789 19.7524 4.56731C20.5841 5.97673 21 7.5723 21 9.35402C21 10.4909 20.8403 11.5479 20.5209 12.5252C20.2015 13.5025 19.7324 14.3734 19.1136 15.138C18.5014 15.9025 17.7495 16.5307 16.8579 17.0227C15.9729 17.5213 14.9615 17.8471 13.8237 18Z" fill="#DBCFC5"/>
<path d="M10.4468 13.8648C9.67158 13.8648 9.00119 13.7003 8.4356 13.3712C7.87334 13.0388 7.43916 12.5767 7.13308 11.985C6.827 11.39 6.67395 10.7003 6.67395 9.91579C6.67395 9.12465 6.827 8.43324 7.13308 7.84155C7.43916 7.24654 7.87334 6.78449 8.4356 6.4554C9.00119 6.12299 9.67158 5.95679 10.4468 5.95679C11.222 5.95679 11.8907 6.12299 12.4529 6.4554C13.0185 6.78449 13.4544 7.24654 13.7605 7.84155C14.0665 8.43324 14.2196 9.12465 14.2196 9.91579C14.2196 10.7003 14.0665 11.39 13.7605 11.985C13.4544 12.5767 13.0185 13.0388 12.4529 13.3712C11.8907 13.7003 11.222 13.8648 10.4468 13.8648ZM10.4567 12.2194C10.8094 12.2194 11.1039 12.1197 11.3401 11.9202C11.5763 11.7175 11.7543 11.4416 11.874 11.0925C11.9971 10.7435 12.0587 10.3463 12.0587 9.90083C12.0587 9.4554 11.9971 9.05817 11.874 8.70914C11.7543 8.36011 11.5763 8.08421 11.3401 7.88144C11.1039 7.67867 10.8094 7.57729 10.4567 7.57729C10.1008 7.57729 9.80133 7.67867 9.55846 7.88144C9.31892 8.08421 9.1376 8.36011 9.0145 8.70914C8.89472 9.05817 8.83484 9.4554 8.83484 9.90083C8.83484 10.3463 8.89472 10.7435 9.0145 11.0925C9.1376 11.4416 9.31892 11.7175 9.55846 11.9202C9.80133 12.1197 10.1008 12.2194 10.4567 12.2194Z" fill="#DBCFC5"/>
</svg>
