<svg width="68" height="68" viewBox="0 0 68 68" fill="none" xmlns="http://www.w3.org/2000/svg">
<path id="Vector" d="M42.5603 47.4192H49.8995L38.1836 17.013H30.069L18.3531 47.4192H25.6928L27.6075 42.2687H38.6774L36.6735 36.5694H29.3848L34.1262 23.4863L42.5603 47.4192ZM66.7619 24.9072C66.5011 23.968 65.531 23.4163 64.5878 23.6782C63.6483 23.939 63.0976 24.9123 63.3585 25.8518C64.095 28.5041 64.4682 31.2456 64.4682 34.0001C64.4682 50.8004 50.8003 64.468 34 64.468C17.1997 64.468 3.53202 50.8004 3.53202 34.0001C3.53202 17.1996 17.1997 3.53176 34 3.53176C41.1169 3.53176 48.0032 6.05999 53.4382 10.5592C53.2267 11.0639 53.1093 11.6177 53.1093 12.1989C53.1093 14.5457 55.0117 16.4481 57.3585 16.4481C59.7053 16.4481 61.6077 14.5457 61.6077 12.1989C61.6077 9.85207 59.7053 7.94966 57.3585 7.94966C56.9067 7.94966 56.4719 8.02164 56.0633 8.15233C49.9433 2.93676 42.105 0 34 0C15.2525 0 0 15.2522 0 34.0001C0 52.7478 15.2525 68 34 68C52.7475 68 68 52.7478 68 34.0001C68 30.9263 67.5838 27.8668 66.7619 24.9072Z" fill="#112B49"/>
</svg>
