<svg width="83" height="50" viewBox="0 0 83 50" fill="none" xmlns="http://www.w3.org/2000/svg">
<g id="Vector">
<path d="M23.3902 18.2091C23.3902 19.2305 23.5006 20.0586 23.6939 20.666C23.9147 21.2733 24.1908 21.9358 24.5772 22.6535C24.7153 22.8744 24.7705 23.0952 24.7705 23.2884C24.7705 23.5645 24.6048 23.8405 24.246 24.1166L22.5069 25.276C22.2584 25.4416 22.01 25.5244 21.7891 25.5244C21.5131 25.5244 21.237 25.3864 20.961 25.138C20.5745 24.7239 20.2433 24.2822 19.9672 23.8405C19.6912 23.3712 19.4151 22.8467 19.1115 22.2118C16.9583 24.7515 14.253 26.0213 10.9956 26.0213C8.6768 26.0213 6.82727 25.3588 5.47463 24.0338C4.12199 22.7087 3.43187 20.942 3.43187 18.7336C3.43187 16.3872 4.26001 14.4825 5.94391 13.047C7.62782 11.6115 9.86381 10.8938 12.7071 10.8938C13.6457 10.8938 14.6119 10.9766 15.6332 11.1147C16.6546 11.2527 17.7036 11.4735 18.8078 11.722V9.7068C18.8078 7.60883 18.3661 6.14577 17.5104 5.29002C16.627 4.43426 15.1364 4.02019 13.0108 4.02019C12.0446 4.02019 11.0508 4.13061 10.0294 4.37905C9.00806 4.6275 8.01429 4.93115 7.04811 5.31762C6.60643 5.51086 6.27517 5.62127 6.08194 5.67649C5.88871 5.73169 5.75068 5.7593 5.64026 5.7593C5.25379 5.7593 5.06056 5.48325 5.06056 4.90355V3.55091C5.06056 3.10923 5.11577 2.77797 5.25379 2.58473C5.39182 2.3915 5.64026 2.19826 6.02673 2.00503C6.9929 1.50814 8.15231 1.09407 9.50495 0.762809C10.8576 0.403945 12.293 0.238315 13.8113 0.238315C17.0963 0.238315 19.4979 0.983648 21.0438 2.47431C22.5621 3.96498 23.335 6.22858 23.335 9.26513V18.2091H23.3902ZM12.1826 22.4051C13.0936 22.4051 14.0322 22.2394 15.0259 21.9082C16.0197 21.5769 16.9031 20.9696 17.6484 20.1415C18.0901 19.617 18.4213 19.0373 18.587 18.3748C18.7526 17.7122 18.863 16.9117 18.863 15.9731V14.8137C18.0625 14.6205 17.2067 14.4549 16.3234 14.3444C15.44 14.234 14.5843 14.1788 13.7285 14.1788C11.879 14.1788 10.5263 14.5377 9.61537 15.283C8.70441 16.0283 8.26273 17.0773 8.26273 18.4576C8.26273 19.755 8.59399 20.7212 9.28411 21.3837C9.94663 22.0738 10.9128 22.4051 12.1826 22.4051ZM34.3494 25.3864C33.8525 25.3864 33.5212 25.3036 33.3004 25.1103C33.0796 24.9447 32.8863 24.5583 32.7207 24.0338L26.2335 2.69515C26.0679 2.14306 25.9851 1.78419 25.9851 1.59096C25.9851 1.14928 26.2059 0.900833 26.6476 0.900833H29.3529C29.8774 0.900833 30.2363 0.983648 30.4295 1.17688C30.6503 1.34251 30.816 1.72898 30.9816 2.25347L35.6192 20.5279L39.9256 2.25347C40.0636 1.70138 40.2292 1.34251 40.4501 1.17688C40.6709 1.01125 41.0574 0.900833 41.5543 0.900833H43.7627C44.2872 0.900833 44.646 0.983648 44.8669 1.17688C45.0877 1.34251 45.2809 1.72898 45.3914 2.25347L49.7529 20.7488L54.5286 2.25347C54.6942 1.70138 54.8875 1.34251 55.0807 1.17688C55.3015 1.01125 55.6604 0.900833 56.1573 0.900833H58.7245C59.1662 0.900833 59.4147 1.12167 59.4147 1.59096C59.4147 1.72898 59.3871 1.86701 59.3595 2.03264C59.3318 2.19826 59.2766 2.4191 59.1662 2.72276L52.5134 24.0614C52.3478 24.6135 52.1546 24.9723 51.9337 25.138C51.7129 25.3036 51.354 25.414 50.8847 25.414H48.5107C47.9862 25.414 47.6274 25.3312 47.4065 25.138C47.1857 24.9447 46.9924 24.5859 46.882 24.0338L42.6033 6.22858L38.3521 24.0062C38.2141 24.5583 38.0484 24.9171 37.8276 25.1103C37.6068 25.3036 37.2203 25.3864 36.7234 25.3864H34.3494ZM69.8217 26.1317C68.3863 26.1317 66.9508 25.9661 65.5706 25.6348C64.1903 25.3036 63.1137 24.9447 62.396 24.5306C61.9543 24.2822 61.6507 24.0062 61.5402 23.7577C61.4298 23.5093 61.3746 23.2332 61.3746 22.9848V21.5769C61.3746 20.9972 61.5955 20.7212 62.0095 20.7212C62.1752 20.7212 62.3408 20.7488 62.5064 20.804C62.672 20.8592 62.9205 20.9696 63.1965 21.08C64.1351 21.4941 65.1565 21.8254 66.2331 22.0462C67.3373 22.267 68.4139 22.3775 69.5181 22.3775C71.2572 22.3775 72.6098 22.0738 73.5484 21.4665C74.487 20.8592 74.9838 19.9758 74.9838 18.844C74.9838 18.0711 74.7354 17.4362 74.2385 16.9117C73.7416 16.3872 72.8031 15.9179 71.4504 15.4762L67.4477 14.234C65.4325 13.5991 63.9419 12.6605 63.0309 11.4183C62.1199 10.2037 61.6507 8.85105 61.6507 7.4156C61.6507 6.25619 61.8991 5.23481 62.396 4.35145C62.8929 3.46809 63.5554 2.69515 64.3836 2.08785C65.2117 1.45293 66.1503 0.983648 67.2545 0.652389C68.3587 0.32113 69.5181 0.183105 70.7327 0.183105C71.34 0.183105 71.9749 0.21071 72.5822 0.293525C73.2171 0.37634 73.7968 0.48676 74.3765 0.597179C74.9286 0.735204 75.4531 0.873229 75.95 1.03886C76.4469 1.20449 76.8334 1.37012 77.1094 1.53575C77.4959 1.75659 77.7719 1.97743 77.9376 2.22587C78.1032 2.44671 78.186 2.75036 78.186 3.13683V4.43426C78.186 5.01397 77.9652 5.31762 77.5511 5.31762C77.3303 5.31762 76.9714 5.2072 76.5021 4.98636C74.9286 4.26863 73.1619 3.90977 71.202 3.90977C69.6285 3.90977 68.3863 4.15821 67.5305 4.68271C66.6748 5.2072 66.2331 6.00774 66.2331 7.13955C66.2331 7.91248 66.5091 8.575 67.0612 9.0995C67.6133 9.62399 68.6347 10.1485 70.0978 10.6178L74.0177 11.86C76.0052 12.4949 77.4407 13.3783 78.2964 14.5101C79.1522 15.6419 79.5663 16.9393 79.5663 18.3748C79.5663 19.5618 79.3178 20.6384 78.8485 21.5769C78.3516 22.5155 77.6891 23.3436 76.8334 24.0062C75.9776 24.6963 74.9562 25.1932 73.7692 25.552C72.527 25.9385 71.2296 26.1317 69.8217 26.1317Z" fill="#252F3E"/>
<path d="M75.039 39.5477C65.957 46.2557 52.7619 49.8168 41.4162 49.8168C25.5158 49.8168 11.1888 43.9369 0.367702 34.1648C-0.48805 33.3918 0.284888 32.3428 1.30627 32.9502C13.0108 39.741 27.4481 43.8541 42.3824 43.8541C52.4582 43.8541 63.5278 41.7561 73.714 37.4498C75.2323 36.7596 76.5297 38.4435 75.039 39.5477ZM78.8209 35.2414C77.6615 33.7507 71.1467 34.5236 68.193 34.8825C67.3097 34.9929 67.1716 34.22 67.9722 33.6403C73.1619 29.9964 81.6918 31.0454 82.6856 32.26C83.6794 33.5023 82.4096 42.0322 77.5511 46.1177C76.8058 46.7526 76.088 46.4214 76.4193 45.5932C77.5235 42.8603 79.9803 36.7044 78.8209 35.2414Z" fill="#FF9900"/>
</g>
</svg>
