<svg width="61" height="69" viewBox="0 0 61 69" fill="none" xmlns="http://www.w3.org/2000/svg">
<g id="symbol">
<path id="Shape" fill-rule="evenodd" clip-rule="evenodd" d="M6.44116 61.3159L0.984375 0.11377H60.9458L55.4832 61.3059L30.9288 68.1138L6.44116 61.3159Z" fill="#0071BC"/>
<path id="Shape_2" fill-rule="evenodd" clip-rule="evenodd" d="M31.0155 62.9069L50.832 57.4554L55.475 5.21069H31.0155V62.9069Z" fill="#29ABE2"/>
<path id="Shape_3" fill-rule="evenodd" clip-rule="evenodd" d="M13.4749 27.696L14.1322 35.1912L31.0154 27.696V20.1887L13.4749 27.696Z" fill="#B3B3B3"/>
<path id="Shape_4" fill-rule="evenodd" clip-rule="evenodd" d="M49.7142 12.175L31.0155 20.1887V27.6961L49.0694 19.6702L49.7142 12.175Z" fill="#E6E6E6"/>
<path id="Shape_5" fill-rule="evenodd" clip-rule="evenodd" d="M31.0153 47.3071L30.9573 47.3158L22.5845 45.0672L22.0375 39.0887H14.502L15.5535 50.8667L30.9557 55.1313L31.0153 55.1172V47.3071Z" fill="#E6E6E6"/>
<path id="Shape_6" fill-rule="evenodd" clip-rule="evenodd" d="M31.0155 27.696V35.1912H40.1824L39.3492 44.9906L31.0155 47.3135V55.123L46.3665 50.8584L48.388 27.696H31.0155Z" fill="white"/>
<path id="Shape_7" fill-rule="evenodd" clip-rule="evenodd" d="M31.0154 27.696H13.4749L14.1322 35.1912H31.0154V27.696Z" fill="#E6E6E6"/>
<path id="Shape_8" fill-rule="evenodd" clip-rule="evenodd" d="M31.0155 19.6702V12.175H30.9393H12.1423L12.8075 19.6702H31.0155Z" fill="#E6E6E6"/>
<path id="Shape_9" fill-rule="evenodd" clip-rule="evenodd" d="M31.0155 12.175V19.5762V19.6702H49.0694L49.7142 12.175H31.0155Z" fill="white"/>
</g>
</svg>
