<svg width="81" height="58" viewBox="0 0 81 58" fill="none" xmlns="http://www.w3.org/2000/svg">
<path id="symbol" d="M62.6878 11.5398L64.4142 12.7898C67.4166 15.2115 69.143 17.9458 69.5183 21.0707C72.7459 20.4457 76.8742 20.9144 78.6757 22.1644L80.327 23.18L80.0268 23.805C79.5014 24.9768 79.3512 25.2893 79.2762 25.4455C76.3488 31.3046 70.5692 31.3828 67.867 31.3046C61.0365 48.4133 46.4748 57.8661 26.8089 57.8661C17.7266 57.8661 10.8211 54.9756 6.1673 49.2727C0.012348 41.773 0.0123479 32.0077 0.537771 28.8829L0.687892 28.2579H54.9566C57.8089 28.2579 59.9856 27.4767 61.0365 26.8517C59.9106 25.133 59.5353 23.18 59.4602 22.0863C59.235 18.9614 59.9856 15.6803 61.4869 13.3366L62.6878 11.5398ZM14.7993 18.8833V26.6955H6.54261V18.8833H14.7993ZM24.5571 18.8833V26.6955H16.3005V18.8833H24.5571ZM34.315 18.8833V26.6955H26.0583V18.8833H34.315ZM44.0728 18.8833V26.6955H35.8162V18.8833H44.0728ZM53.8307 18.8833V26.6955H45.574V18.8833H53.8307ZM44.0728 9.50865V17.3208H35.8162V9.50865H44.0728ZM34.315 9.50865V17.3208H26.0583V9.50865H34.315ZM24.5571 9.50865V17.3208H16.3005V9.50865H24.5571ZM44.0728 0.134033V7.94622H35.8162V0.134033H44.0728Z" fill="#2396ED"/>
</svg>
