<svg width="49" height="66" viewBox="0 0 49 66" fill="none" xmlns="http://www.w3.org/2000/svg">
<g id="Vector">
<path d="M0 53.2729L0.399552 52.7135L19.3003 16.8502L19.3402 16.4705L11.0084 0.820395C10.3103 -0.490586 8.34516 -0.159125 8.11607 1.30842L0 53.2729Z" fill="#FFC24A"/>
<path d="M0.235674 52.8463L0.537923 52.257L19.2406 16.7694L10.9296 1.05564C10.2389 -0.241606 8.48484 0.089088 8.25815 1.54125L0.235674 52.8463Z" fill="#FFA712"/>
<path d="M25.4142 28.3084L31.6179 21.9549L25.4124 10.1086C24.8233 8.98726 23.1786 8.98402 22.5957 10.1086L19.2804 16.4315V16.97L25.4142 28.3084Z" fill="#F4BD62"/>
<path d="M25.3035 28.0436L31.3346 21.8668L25.3035 10.3825C24.7308 9.2924 23.3395 9.17818 22.7729 10.2715L19.44 16.6924L19.3404 17.0206L25.3035 28.0436Z" fill="#FFA50E"/>
<path d="M0 53.2729L0.18111 53.0908L0.839143 52.8234L25.0244 28.728L25.3308 27.8939L19.2976 16.397L0 53.2729Z" fill="#F6820C"/>
<path d="M26.1888 65.4248L48.077 53.2175L41.8265 14.7225C41.631 13.518 40.1533 13.0419 39.2913 13.9055L0 53.2729L21.7627 65.4237C23.138 66.1916 24.8131 66.192 26.1888 65.4248Z" fill="#FDE068"/>
<path d="M47.8809 53.1152L41.6778 14.9123C41.4837 13.7171 40.255 13.2225 39.3995 14.0795L0.24266 53.1982L21.7663 65.2287C23.1312 65.9908 24.7936 65.9911 26.1588 65.2298L47.8809 53.1152Z" fill="#FCCA3F"/>
<path d="M26.1888 65.0651C24.8131 65.8324 23.138 65.832 21.7627 65.0641L0.175286 53.0878L0 53.2729L21.7627 65.4237C23.138 66.1916 24.8131 66.192 26.1888 65.4248L48.077 53.2175L48.0234 52.8877L26.1888 65.0651Z" fill="#EEAB37"/>
</g>
</svg>
