<svg width="67" height="66" viewBox="0 0 67 66" fill="none" xmlns="http://www.w3.org/2000/svg">
<g id="Vector">
<path fill-rule="evenodd" clip-rule="evenodd" d="M64.092 30.1429L36.0603 2.11327C34.4472 0.4987 31.8288 0.4987 30.2135 2.11327L24.3927 7.93405L31.7766 15.318C33.4927 14.7382 35.4601 15.1271 36.8282 16.4951C38.2025 17.8716 38.5886 19.856 37.9947 21.5776L45.111 28.6938C46.8326 28.1007 48.8191 28.4846 50.1942 29.8618C52.1159 31.7828 52.1159 34.8964 50.1942 36.8188C48.2718 38.7412 45.1581 38.7412 43.235 36.8188C41.7895 35.3719 41.4324 33.2487 42.1643 31.4679L35.5278 24.8314L35.5271 42.2958C35.9955 42.5283 36.4379 42.8376 36.8282 43.2264C38.7499 45.1474 38.7499 48.261 36.8282 50.1848C34.9058 52.1066 31.7907 52.1066 29.8711 50.1848C27.9494 48.261 27.9494 45.1474 29.8711 43.2264C30.3459 42.7523 30.8954 42.3938 31.4815 42.1528V24.5257C30.8954 24.2862 30.3466 23.9297 29.8711 23.4521C28.4151 21.9982 28.065 19.8616 28.811 18.0737L21.5327 10.7941L2.3121 30.0133C0.696819 31.6292 0.696819 34.2476 2.3121 35.8622L30.3438 63.8925C31.9577 65.5071 34.5754 65.5071 36.1914 63.8925L64.092 35.9925C65.7066 34.3773 65.7066 31.7574 64.092 30.1429Z" fill="#DE4C36"/>
</g>
</svg>
