<svg width="68" height="78" viewBox="0 0 68 78" fill="none" xmlns="http://www.w3.org/2000/svg">
<path id="Vector" fill-rule="evenodd" clip-rule="evenodd" d="M40.528 68.4467L56.2387 59.3759C56.6811 59.8445 57.1978 60.2582 57.784 60.5987C61.0423 62.4718 65.1982 61.3596 67.0908 58.1013C68.9638 54.843 67.8517 50.6871 64.5934 48.7945C64.0116 48.4601 63.4007 48.2209 62.7788 48.072V29.9232C63.394 29.774 63.9982 29.5363 64.5738 29.2054C67.8517 27.3128 68.9638 23.157 67.0713 19.8986C65.1982 16.6403 61.0228 15.5282 57.7645 17.4012C57.1158 17.7741 56.5521 18.2383 56.0802 18.7683L40.4654 9.7528C40.6886 9.0783 40.8094 8.3568 40.8094 7.60666C40.8094 3.86053 37.7656 0.797295 34 0.797295C30.2344 0.797295 27.1906 3.84102 27.1906 7.60666C27.1906 8.27601 27.2868 8.92255 27.4661 9.53325L11.7596 18.6017C11.322 18.1423 10.8124 17.7363 10.2355 17.4012C6.95766 15.5282 2.8018 16.6403 0.92874 19.8986C-0.944323 23.157 0.167808 27.3128 3.42616 29.2054C4.00226 29.5366 4.60642 29.7744 5.22117 29.9236V48.072C4.59932 48.2209 3.98837 48.4601 3.40665 48.7945C0.148297 50.6676 -0.963834 54.843 0.909229 58.1013C2.78229 61.3596 6.95766 62.4718 10.216 60.5987C10.799 60.2601 11.3133 59.849 11.7541 59.3835L27.469 68.4568C27.2878 69.0704 27.1906 69.7203 27.1906 70.3933C27.1906 74.1589 30.2344 77.2026 34 77.2026C37.7656 77.2026 40.8094 74.1589 40.8094 70.3933C40.8094 69.7166 40.7111 69.0633 40.528 68.4467ZM38.8911 65.652L54.6392 56.5595C54.1524 54.8498 54.3311 52.9541 55.2866 51.2919C56.2452 49.6243 57.8069 48.5189 59.54 48.0881V29.9166C59.4517 29.895 59.3638 29.8715 59.2764 29.8464L38.7083 65.4703C38.7704 65.5297 38.8313 65.5903 38.8911 65.652ZM29.296 65.4662L8.72826 29.8429C8.63934 29.8687 8.5499 29.8927 8.46001 29.9149V48.0881C10.1932 48.5189 11.7548 49.6243 12.7134 51.2919C13.6708 52.9574 13.8483 54.8573 13.3579 56.5697L29.1015 65.6595C29.1651 65.5938 29.2299 65.5294 29.296 65.4662ZM35.9026 63.8524L56.4657 28.2371C56.0055 27.7983 55.5999 27.287 55.2671 26.708C54.9362 26.1324 54.6984 25.5281 54.5492 24.913H13.4511C13.302 25.5277 13.0641 26.1319 12.7329 26.708C12.3988 27.2833 11.994 27.7918 11.5361 28.2286L32.1031 63.8507C32.7051 63.677 33.3415 63.5839 34 63.5839C34.6606 63.5839 35.299 63.6776 35.9026 63.8524ZM39.0357 12.1941L54.6816 21.2275C54.6347 21.3749 54.5927 21.5239 54.5558 21.6741H13.4424C13.4206 21.5859 13.3971 21.498 13.3718 21.4107L29.0944 12.333C30.3323 13.6177 32.0715 14.416 34 14.416C35.9971 14.416 37.7911 13.5599 39.0357 12.1941Z" fill="#E535AB"/>
</svg>
