<svg width="61" height="69" viewBox="0 0 61 69" fill="none" xmlns="http://www.w3.org/2000/svg">
<g id="symbol">
<path id="Shape" fill-rule="evenodd" clip-rule="evenodd" d="M6.441 61.3162L0.984375 0.11377H60.9433L55.4809 61.3067L30.9272 68.1138L6.441 61.3162Z" fill="#E44D26"/>
<path id="Shape_2" fill-rule="evenodd" clip-rule="evenodd" d="M30.9639 62.9106L50.8045 57.41L55.4725 5.11792H30.9639V62.9106Z" fill="#F16529"/>
<g id="Union">
<path d="M21.0312 27.8171H30.9639V35.3232H14.1664L12.1418 12.6243H30.9639V20.1306H20.3452L21.0312 27.8171Z" fill="#EBEBEB"/>
<path d="M30.931 47.3203L30.9639 47.3116V55.1212L30.9294 55.1308L15.5534 50.8623L14.5018 39.0765H22.0369L22.5713 45.063L30.931 47.3203Z" fill="#EBEBEB"/>
</g>
<g id="Union_2">
<path d="M30.938 12.6243H49.7412L49.0691 20.1306H30.938V12.6243Z" fill="white"/>
<path d="M30.938 35.3232V27.8171H48.3861L48.203 29.8327L46.3262 50.8623L30.938 55.1272V47.3179L39.3098 45.0582L40.1811 35.3232H30.938Z" fill="white"/>
</g>
</g>
</svg>
