<svg width="68" height="69" viewBox="0 0 68 69" fill="none" xmlns="http://www.w3.org/2000/svg">
<g id="Group">
<path id="Shape" fill-rule="evenodd" clip-rule="evenodd" d="M0 0.11377H68V68.1138H0V0.11377Z" fill="#F7DF1E"/>
<path id="Shape_2" fill-rule="evenodd" clip-rule="evenodd" d="M17.8797 56.9396L23.0836 53.7903C24.0875 55.5703 25.0007 57.0763 27.1913 57.0763C29.2911 57.0763 30.615 56.2549 30.615 53.06V31.3324H37.0052V53.1504C37.0052 59.769 33.1256 62.7816 27.4653 62.7816C22.3533 62.7816 19.3859 60.1341 17.8796 56.939" fill="black"/>
<path id="Shape_3" fill-rule="evenodd" clip-rule="evenodd" d="M40.4763 56.2548L45.6795 53.2422C47.0492 55.4791 48.8294 57.1222 51.9788 57.1222C54.6266 57.1222 56.315 55.7984 56.315 53.9725C56.315 51.7815 54.5806 51.0055 51.6592 49.7278L50.0621 49.0426C45.4515 47.0802 42.3932 44.6154 42.3932 39.4117C42.3932 34.6189 46.0448 30.967 51.7507 30.967C55.8132 30.967 58.7345 32.3822 60.834 36.0796L55.8586 39.2746C54.763 37.312 53.5766 36.5361 51.7508 36.5361C49.8793 36.5361 48.6924 37.7229 48.6924 39.2746C48.6924 41.1918 49.8793 41.9679 52.6178 43.1548L54.2152 43.8394C59.6471 46.1675 62.7055 48.5408 62.7055 53.8812C62.7055 59.6329 58.1866 62.7822 52.1159 62.7822C46.182 62.7822 42.3476 59.9523 40.4764 56.2548" fill="black"/>
</g>
</svg>
