<svg width="66" height="66" viewBox="0 0 66 66" fill="none" xmlns="http://www.w3.org/2000/svg">
<g id="Vector">
<path d="M15.3834 0H50.6166C55.9656 0 57.9057 0.5571 59.8611 1.6029C61.8168 2.6487 63.3513 4.1835 64.3971 6.1389C65.4432 8.0946 66 10.0341 66 15.3834V50.6166C66 55.9656 65.4432 57.9054 64.3971 59.8611C63.3513 61.8165 61.8168 63.3513 59.8611 64.3971C57.9057 65.4429 55.9659 66 50.6166 66H15.3834C10.0344 66 8.0946 65.4429 6.1389 64.3971C4.1835 63.3513 2.6487 61.8165 1.6029 59.8611C0.5571 57.9054 0 55.9659 0 50.6166V15.3834C0 10.0344 0.5571 8.0946 1.6029 6.1389C2.6487 4.1835 4.1835 2.6487 6.1389 1.6029C8.0946 0.5571 10.0341 0 15.3834 0ZM18.912 17.028V51.3H26.448V40.26L30.768 35.892L41.088 51.3H50.544L35.856 30.564L49.248 17.028H39.84L26.448 31.236V17.028H18.912Z" fill="url(#paint0_linear_323_322)"/>
<path d="M18.912 17.028V51.3H26.448V40.26L30.768 35.892L41.088 51.3H50.544L35.856 30.564L49.248 17.028H39.84L26.448 31.236V17.028H18.912Z" fill="white"/>
</g>
<defs>
<linearGradient id="paint0_linear_323_322" x1="0" y1="0" x2="33" y2="47.4679" gradientUnits="userSpaceOnUse">
<stop stop-color="#5AE8FA"/>
<stop offset="1" stop-color="#2684FF"/>
</linearGradient>
</defs>
</svg>
