<svg width="31" height="66" viewBox="0 0 31 66" fill="none" xmlns="http://www.w3.org/2000/svg">
<g id="Vector">
<path fill-rule="evenodd" clip-rule="evenodd" d="M16.7397 66L14.9413 65.3997C14.9413 65.3997 15.1608 56.4427 11.8709 55.7999C9.67754 53.3142 12.2218 -49.6284 20.1176 55.4571C20.1176 55.4571 17.3981 56.7855 16.9154 59.057C16.3888 61.2857 16.7397 66 16.7397 66Z" fill="white"/>
<path fill-rule="evenodd" clip-rule="evenodd" d="M16.7397 66L14.9413 65.3997C14.9413 65.3997 15.1608 56.4427 11.8709 55.7999C9.67754 53.3142 12.2218 -49.6284 20.1176 55.4571C20.1176 55.4571 17.3981 56.7855 16.9154 59.057C16.3888 61.2857 16.7397 66 16.7397 66Z" fill="#A6A385"/>
<path fill-rule="evenodd" clip-rule="evenodd" d="M17.7051 57.3429C17.7051 57.3429 33.4531 47.2285 29.7683 26.1856C26.2153 10.8858 17.8364 5.87154 16.9154 3.94283C15.9066 2.57148 14.9413 0.171619 14.9413 0.171619L15.5996 42.7284C15.5996 42.7713 14.2394 55.757 17.7051 57.3429Z" fill="white"/>
<path fill-rule="evenodd" clip-rule="evenodd" d="M17.7051 57.3429C17.7051 57.3429 33.4531 47.2285 29.7683 26.1856C26.2153 10.8858 17.8364 5.87154 16.9154 3.94283C15.9066 2.57148 14.9413 0.171619 14.9413 0.171619L15.5996 42.7284C15.5996 42.7713 14.2394 55.757 17.7051 57.3429Z" fill="#499D4A"/>
<path fill-rule="evenodd" clip-rule="evenodd" d="M14.0203 57.8998C14.0203 57.8998 -0.762892 48.0425 0.1146 30.6857C0.947766 13.3286 11.3882 4.80012 13.4059 3.25716C14.7221 1.88581 14.766 1.37135 14.8538 0C15.7748 1.92871 15.5996 28.8428 15.7309 32.0142C16.1257 44.2284 15.0291 55.5858 14.0203 57.8998Z" fill="white"/>
<path fill-rule="evenodd" clip-rule="evenodd" d="M14.0203 57.8998C14.0203 57.8998 -0.762892 48.0425 0.1146 30.6857C0.947766 13.3286 11.3882 4.80012 13.4059 3.25716C14.7221 1.88581 14.766 1.37135 14.8538 0C15.7748 1.92871 15.5996 28.8428 15.7309 32.0142C16.1257 44.2284 15.0291 55.5858 14.0203 57.8998Z" fill="#58AA50"/>
</g>
</svg>
