<svg width="68" height="68" viewBox="0 0 68 68" fill="none" xmlns="http://www.w3.org/2000/svg">
<g id="Union">
<path d="M53.6629 53.9127C56.0679 52.8764 58.9354 52.4992 62.6353 52.5932C62.5312 51.888 61.209 51.0503 60.2404 50.4367C59.9153 50.2307 59.63 50.05 59.444 49.9079C57.964 48.8244 56.3914 47.6932 54.8191 46.7042C54.3126 46.3889 53.5833 46.1258 52.8815 45.8726C52.43 45.7098 51.9899 45.551 51.6278 45.3851C51.2578 45.2315 50.7539 45.0779 50.2099 44.912C48.9176 44.5181 47.3988 44.0552 46.9104 43.3592C45.6529 41.6937 44.7752 39.6797 43.8988 37.6685C43.8083 37.4608 43.7178 37.253 43.6269 37.0457C43.1681 35.9774 42.6578 34.8881 42.1445 33.7926C41.5713 32.5691 40.9945 31.3379 40.482 30.1198C40.2587 29.6237 40.0889 29.1546 39.9217 28.6928C39.708 28.1024 39.4986 27.524 39.1871 26.9161C35.8107 20.2731 30.8162 14.7133 24.7574 10.8029C22.7685 9.53073 20.5489 8.35257 18.0975 7.55186C17.3489 7.32318 16.5196 7.28637 15.6821 7.24919C14.9674 7.21747 14.2467 7.18548 13.5652 7.03372H12.5938C12.033 6.87503 11.5352 6.41696 11.0721 5.99084C10.8478 5.78441 10.6316 5.58547 10.4203 5.43171C8.98643 4.44243 7.55284 3.7824 5.84158 3.07599C5.24042 2.79342 3.52916 2.1337 2.92798 2.65214C2.55776 2.74643 2.37294 2.88771 2.28038 3.26456C1.91045 3.83 2.23454 4.678 2.46549 5.19614C2.92391 6.19243 3.50357 6.92131 4.09756 7.66822C4.40248 8.05163 4.71117 8.43979 5.00918 8.87131C5.15152 9.07597 5.29991 9.28526 5.4508 9.49807C6.13342 10.4608 6.86705 11.4955 7.32162 12.4989C7.96306 13.9066 8.42026 15.3946 8.8758 16.8773C9.27415 18.1738 9.67122 19.4661 10.1891 20.6969C10.6052 21.6865 11.2528 22.8171 11.8539 23.7124C12.0425 23.9744 12.2883 24.2104 12.5371 24.4494C12.9595 24.8551 13.3906 25.2691 13.5652 25.8325C14.015 26.5961 13.1892 28.7827 12.6875 30.1112C12.5701 30.4222 12.4704 30.6861 12.409 30.8738C11.2063 34.737 11.4376 40.1082 12.825 43.4532C12.8746 43.571 12.9238 43.6908 12.9734 43.8114C13.4788 45.041 14.0212 46.3607 15.3687 46.7042C15.4106 46.6615 15.4146 46.6478 15.4237 46.6413C15.4345 46.6333 15.4527 46.6358 15.5538 46.6099C15.6215 46.0683 15.6791 45.5309 15.7359 45.001C15.9508 42.9955 16.154 41.0982 16.8487 39.4957C17.1798 38.6683 17.7258 38.0003 18.2581 37.3492C18.5441 36.9993 18.8261 36.6543 19.0686 36.292C19.3621 36.4713 19.4694 36.8783 19.5795 37.2963C19.6429 37.537 19.7073 37.7813 19.8088 37.988C19.8524 38.0941 19.8963 38.2009 19.9405 38.3083C20.5045 39.6804 21.1113 41.1565 21.7974 42.5109C23.3236 45.5263 25.0351 48.4472 26.9773 51.0858C27.6246 52.0281 28.5499 53.0646 29.3823 53.9126C29.5089 54.0255 29.6409 54.1218 29.7709 54.2167C30.0208 54.399 30.2633 54.5759 30.446 54.8549H30.5385V54.9965C29.6605 54.6684 28.9862 53.9629 28.3281 53.2743C27.9462 52.8747 27.5698 52.4809 27.1621 52.1696C25.081 50.5676 22.5837 48.1646 21.1498 45.8562C20.6982 44.8652 20.2206 43.9008 19.7363 42.923C19.576 42.5992 19.4149 42.2739 19.2537 41.9457C19.2537 41.9457 19.254 41.8984 19.2537 41.8515C19.077 42.0916 19.0505 42.3316 19.0185 42.6205C19.0003 42.785 18.9804 42.9653 18.9299 43.1706C18.7585 43.8423 18.6736 44.5409 18.5915 45.216C18.3857 46.9085 18.1978 48.4537 16.7101 49.0599C14.3515 50.0495 12.5938 47.4576 11.8539 46.28C9.49537 42.3696 8.84777 35.7736 10.5126 30.4497C10.6414 30.0399 10.731 29.6016 10.8204 29.1646C10.9879 28.3454 11.1544 27.5306 11.5766 26.9161C11.4838 26.3499 11.1643 26.0566 10.8522 25.7699C10.6968 25.6273 10.5433 25.4863 10.4203 25.3141C9.77274 24.4191 9.21799 23.3825 8.70908 22.3932C7.96961 20.9226 7.39122 19.2334 6.83068 17.5964C6.65487 17.0829 6.48081 16.5746 6.30409 16.0798C6.14622 15.6663 6.04339 15.2527 5.94193 14.8447C5.83529 14.4158 5.73016 13.9929 5.56423 13.5828C5.12703 12.6177 4.40308 11.6529 3.73096 10.7571C3.54978 10.5157 3.37238 10.2792 3.20537 10.0492C3.0252 9.78577 2.78664 9.48048 2.52072 9.14016C1.21669 7.47136 -0.745484 4.96029 0.291766 2.41657C2.23427 -2.43617 9.03319 1.23841 11.6688 2.93471C11.9324 3.10734 12.2113 3.35795 12.4993 3.61672C12.9189 3.99376 13.3577 4.3881 13.7965 4.58372C14.3747 4.60737 14.953 4.6427 15.5312 4.67803C16.1093 4.71334 16.6873 4.74865 17.2651 4.77229C17.4545 4.81743 17.6427 4.86184 17.8299 4.90599C19.7909 5.36861 21.6227 5.80075 23.1849 6.70387C31.1397 11.4626 36.3196 16.3154 41.0832 24.3248C41.7299 25.4027 42.1712 26.5378 42.6205 27.6938C42.8782 28.3566 43.1385 29.0263 43.4418 29.696C44.598 32.4285 45.8935 35.3021 47.2342 37.8937C47.4028 38.2373 47.5604 38.5919 47.7184 38.9472C48.1239 39.8591 48.5314 40.7757 49.1306 41.5216C49.3459 41.8352 49.8279 42.0025 50.2897 42.1629C50.5217 42.2434 50.7486 42.3222 50.9341 42.4169C51.5323 42.7307 52.1802 43.0157 52.8333 43.3029C53.8465 43.7485 54.8722 44.1997 55.7441 44.7726C58.4264 46.4686 61.0166 48.4942 63.3751 50.5676C63.8519 51.0022 64.2471 51.5338 64.6417 52.0646C64.9745 52.5123 65.3069 52.9594 65.6876 53.3475V53.7714C64.9477 54.0069 64.2075 54.2425 63.4677 54.4311C62.6626 54.6419 61.9034 54.7245 61.15 54.8065C60.3886 54.8894 59.6333 54.9716 58.8428 55.1848C58.7432 55.2138 58.6411 55.2438 58.537 55.2744C57.6266 55.542 56.5647 55.8542 55.6515 55.9388C55.6977 55.9858 55.7441 56.0328 55.7441 56.0328C56.1899 57.3255 58.0853 58.4368 59.6387 59.3475C60.1802 59.665 60.6802 59.9582 61.0627 60.2261C62.8665 61.5453 64.5313 63.1473 65.8727 64.9846C66.1032 65.2194 66.3339 65.4426 66.5645 65.6658C66.7964 65.8903 67.0284 66.1147 67.2601 66.351C67.4168 66.5791 67.5192 66.8403 67.6201 67.0973C67.7275 67.371 67.833 67.6399 68 67.8587V68C67.5954 67.8528 67.3172 67.5584 67.0414 67.2663C66.8757 67.0909 66.7109 66.9164 66.52 66.7751C66.0844 66.4726 65.6489 66.1441 65.2134 65.8155C64.6316 65.3766 64.0498 64.9377 63.4677 64.5607C62.5728 63.9848 61.6059 63.5312 60.6342 63.0754C59.6977 62.636 58.7567 62.1946 57.8714 61.6396C56.8542 60.9798 55.8828 60.2261 54.9117 59.4724C54.0328 58.8127 53.062 57.5402 52.5067 56.5982C52.3667 56.3743 52.2786 56.1327 52.1938 55.9001C52.0824 55.5946 51.9767 55.3046 51.7665 55.0905C51.8357 54.4212 52.474 54.2523 53.0817 54.0914C53.2865 54.0372 53.4879 53.9839 53.6629 53.9127Z" fill="#00546B"/>
<path d="M13.565 11.8865C14.12 11.7452 14.6748 11.6506 15.4611 11.6506C15.6076 11.8 15.7906 11.9272 15.9753 12.0556C16.2567 12.2513 16.5424 12.4498 16.7098 12.7345C16.8126 12.881 16.8788 13.0276 16.945 13.1741C17.0278 13.3574 17.1106 13.5407 17.2649 13.724C17.2649 14.8546 16.9414 15.6083 16.2935 16.0798C16.2935 16.0798 16.2473 16.1268 16.2012 16.1741C16.0164 15.7976 15.8432 15.4211 15.67 15.0447C15.4963 14.6672 15.3226 14.2897 15.1373 13.9123C14.9572 13.6555 14.7491 13.4201 14.5403 13.1839C14.2128 12.8135 13.8836 12.441 13.6575 11.9807H13.565V11.8865Z" fill="#00546B"/>
</g>
</svg>
