<svg width="69" height="69" viewBox="0 0 69 69" fill="none" xmlns="http://www.w3.org/2000/svg">
<g id="Nextjs">
<path id="Vector" d="M32.637 0.132069C32.4907 0.145361 32.0254 0.191884 31.6067 0.225115C21.9484 1.09576 12.9017 6.30633 7.17188 14.3149C3.98127 18.7678 1.9406 23.8189 1.16954 29.1691C0.897005 31.0366 0.86377 31.5882 0.86377 34.1204C0.86377 36.6526 0.897005 37.2042 1.16954 39.0718C3.01744 51.839 12.104 62.5659 24.4278 66.5403C26.6346 67.2514 28.9611 67.7366 31.6067 68.029C32.637 68.142 37.0906 68.142 38.1209 68.029C42.6874 67.5239 46.556 66.3941 50.3715 64.4468C50.9564 64.1477 51.0694 64.0679 50.9897 64.0015C50.9365 63.9616 48.4438 60.6186 45.4526 56.5777L40.0153 49.2337L33.202 39.1516C29.453 33.6087 26.3688 29.076 26.3422 29.076C26.3156 29.0694 26.289 33.5489 26.2757 39.0186C26.2558 48.5957 26.2491 48.9812 26.1295 49.2072C25.9566 49.5328 25.8237 49.6657 25.5445 49.812C25.3318 49.9183 25.1457 49.9382 24.142 49.9382H22.992L22.6863 49.7455C22.4868 49.6192 22.3406 49.4531 22.2409 49.2603L22.1013 48.9613L22.1146 35.6357L22.1345 22.3036L22.3406 22.0444C22.447 21.9048 22.673 21.7254 22.8325 21.639C23.105 21.5061 23.2114 21.4928 24.3613 21.4928C25.7173 21.4928 25.9433 21.5459 26.2956 21.9314C26.3953 22.0377 30.0845 27.5939 34.4982 34.2866C38.9119 40.9792 44.9474 50.1177 47.9121 54.6038L53.2962 62.7586L53.5688 62.5792C55.9817 61.0107 58.5341 58.7776 60.5549 56.4515C64.8556 51.5134 67.6274 45.492 68.558 39.0718C68.8305 37.2042 68.8638 36.6526 68.8638 34.1204C68.8638 31.5882 68.8305 31.0366 68.558 29.1691C66.7101 16.4018 57.6235 5.67495 45.2997 1.70056C43.1261 0.996067 40.8129 0.510899 38.2206 0.218468C37.5824 0.152007 33.1887 0.0788995 32.637 0.132069ZM46.556 20.6952C46.8751 20.8547 47.1343 21.1605 47.2274 21.4795C47.2806 21.6523 47.2939 25.3475 47.2806 33.6751L47.2606 45.6249L45.1535 42.3949L43.0397 39.1648V30.4783C43.0397 24.8624 43.0663 21.7054 43.1062 21.5526C43.2125 21.1804 43.4452 20.888 43.7643 20.7152C44.0368 20.5756 44.1365 20.5623 45.1801 20.5623C46.1639 20.5623 46.3367 20.5756 46.556 20.6952Z" fill="black"/>
</g>
</svg>
