<svg width="120" height="48" viewBox="0 0 120 48" fill="none" xmlns="http://www.w3.org/2000/svg">
<g id="Group 1">
<path id="Shape" fill-rule="evenodd" clip-rule="evenodd" d="M25.7685 25.3719C25.7685 24.8837 25.4973 24.4226 25.0633 24.1784L13.5624 17.56C13.3725 17.4515 13.1555 17.3972 12.9385 17.3701H12.83C12.613 17.3701 12.396 17.4515 12.2062 17.56L0.705244 24.1784C0.271248 24.4226 0 24.8837 0 25.3719L0.0271248 43.1658C0.0271248 43.4099 0.162749 43.654 0.379747 43.7625C0.596745 43.8981 0.867993 43.8981 1.05787 43.7625L7.89331 39.8566C8.32731 39.6124 8.59856 39.1513 8.59856 38.6631V30.3358C8.59856 29.8475 8.8698 29.3864 9.3038 29.1423L12.2062 27.4605C12.4231 27.3249 12.6673 27.2707 12.9114 27.2707C13.1555 27.2707 13.3996 27.3249 13.5895 27.4605L16.4919 29.1423C16.9259 29.3864 17.1971 29.8475 17.1971 30.3358V38.6631C17.1971 39.1513 17.4684 39.6124 17.9024 39.8566L24.7378 43.7625C24.9548 43.8981 25.226 43.8981 25.443 43.7625C25.66 43.654 25.7957 43.4099 25.7957 43.1658L25.7685 25.3719Z" fill="#333333"/>
<path id="Shape_2" fill-rule="evenodd" clip-rule="evenodd" d="M81.0487 0.878249C80.8317 0.76975 80.5604 0.76975 80.3705 0.878249C80.1535 1.01387 80.0179 1.23087 80.0179 1.47499V19.1061C80.0179 19.2688 79.9365 19.4316 79.7738 19.5401C79.611 19.6215 79.4483 19.6215 79.2855 19.5401L76.4103 17.8855C75.9763 17.6414 75.461 17.6414 75.027 17.8855L63.526 24.5311C63.092 24.7752 62.8208 25.2363 62.8208 25.7245V38.9886C62.8208 39.4768 63.092 39.9379 63.526 40.1821L75.027 46.8276C75.461 47.0717 75.9763 47.0717 76.4103 46.8276L87.9112 40.1821C88.3452 39.9379 88.6165 39.4768 88.6165 38.9886V5.92346C88.6165 5.40809 88.3452 4.94697 87.9112 4.70284L81.0487 0.878249ZM79.9907 34.6215C79.9907 34.7571 79.9365 34.8656 79.828 34.9198L75.8949 37.1983C75.7864 37.2526 75.6507 37.2526 75.5422 37.1983L71.6091 34.9198C71.5006 34.8656 71.4464 34.73 71.4464 34.6215V30.0645C71.4464 29.9289 71.5006 29.8204 71.6091 29.7661L75.5422 27.4877C75.6507 27.4334 75.7864 27.4334 75.8949 27.4877L79.828 29.7661C79.9365 29.8204 79.9907 29.956 79.9907 30.0645V34.6215Z" fill="#333333"/>
<g id="Group">
<path id="Shape_3" fill-rule="evenodd" clip-rule="evenodd" d="M119.322 29.956C119.756 29.7119 120 29.2508 120 28.7626V25.5347C120 25.0465 119.729 24.5853 119.322 24.3412L107.902 17.7228C107.468 17.4786 106.953 17.4786 106.519 17.7228L95.018 24.3683C94.584 24.6125 94.3127 25.0736 94.3127 25.5618V38.8258C94.3127 39.3141 94.584 39.7752 95.018 40.0193L106.438 46.5293C106.872 46.7734 107.387 46.7734 107.794 46.5293L114.711 42.6776C114.928 42.5691 115.063 42.3249 115.063 42.0808C115.063 41.8367 114.928 41.5926 114.711 41.4841L103.155 34.8385C102.938 34.7029 102.803 34.4859 102.803 34.2418V30.0917C102.803 29.8475 102.938 29.6034 103.155 29.4949L106.763 27.4334C106.98 27.2978 107.251 27.2978 107.468 27.4334L111.076 29.4949C111.293 29.6305 111.428 29.8475 111.428 30.0917V33.3466C111.428 33.5908 111.564 33.8349 111.781 33.9434C111.998 34.079 112.269 34.079 112.486 33.9434L119.322 29.956Z" fill="#333333"/>
<path id="Shape_4" fill-rule="evenodd" clip-rule="evenodd" d="M107.034 29.3322C107.116 29.2779 107.224 29.2779 107.305 29.3322L109.503 30.6071C109.584 30.6613 109.638 30.7427 109.638 30.8512V33.4009C109.638 33.5094 109.584 33.5908 109.503 33.645L107.305 34.9199C107.224 34.9741 107.116 34.9741 107.034 34.9199L104.837 33.645C104.756 33.5908 104.701 33.5094 104.701 33.4009V30.8512C104.701 30.7427 104.756 30.6613 104.837 30.6071L107.034 29.3322Z" fill="#539E43"/>
</g>
<g id="Group_2">
<g id="mask-3">
<path id="path-2" fill-rule="evenodd" clip-rule="evenodd" d="M45.0001 17.777C44.5661 17.5328 44.0507 17.5328 43.6167 17.777L32.1972 24.3683C31.7632 24.6124 31.519 25.0735 31.519 25.5618V38.7715C31.519 39.2598 31.7903 39.7209 32.1972 39.965L43.6167 46.5564C44.0507 46.8005 44.5661 46.8005 45.0001 46.5564L56.4196 39.965C56.8536 39.7209 57.0977 39.2598 57.0977 38.7715V25.5618C57.0977 25.0735 56.8265 24.6124 56.4196 24.3683L45.0001 17.777Z" fill="white"/>
</g>
<g id="path-2-link">
<path id="path-2_2" fill-rule="evenodd" clip-rule="evenodd" d="M45.0001 17.777C44.5661 17.5328 44.0507 17.5328 43.6167 17.777L32.1972 24.3683C31.7632 24.6124 31.519 25.0735 31.519 25.5618V38.7715C31.519 39.2598 31.7903 39.7209 32.1972 39.965L43.6167 46.5564C44.0507 46.8005 44.5661 46.8005 45.0001 46.5564L56.4196 39.965C56.8536 39.7209 57.0977 39.2598 57.0977 38.7715V25.5618C57.0977 25.0735 56.8265 24.6124 56.4196 24.3683L45.0001 17.777Z" fill="url(#paint0_linear_334_219)"/>
</g>
<g id="Clipped">
<mask id="mask0_334_219" style="mask-type:luminance" maskUnits="userSpaceOnUse" x="31" y="17" width="27" height="30">
<path id="path-2_3" fill-rule="evenodd" clip-rule="evenodd" d="M45.0001 17.777C44.5661 17.5328 44.0507 17.5328 43.6167 17.777L32.1972 24.3683C31.7632 24.6124 31.519 25.0735 31.519 25.5618V38.7715C31.519 39.2598 31.7903 39.7209 32.1972 39.965L43.6167 46.5564C44.0507 46.8005 44.5661 46.8005 45.0001 46.5564L56.4196 39.965C56.8536 39.7209 57.0977 39.2598 57.0977 38.7715V25.5618C57.0977 25.0735 56.8265 24.6124 56.4196 24.3683L45.0001 17.777Z" fill="white"/>
</mask>
<g mask="url(#mask0_334_219)">
<path id="Shape_5" fill-rule="evenodd" clip-rule="evenodd" d="M56.447 24.3683L44.9732 17.777C44.8647 17.7227 44.7291 17.6685 44.6206 17.6414L31.7634 39.6667C31.8719 39.8023 32.0076 39.9108 32.1432 39.9922L43.617 46.5835C43.9425 46.7734 44.3222 46.8276 44.6748 46.7191L56.7453 24.6396C56.664 24.5311 56.5555 24.4497 56.447 24.3683Z" fill="url(#paint1_linear_334_219)"/>
</g>
</g>
<g id="Clipped_2">
<mask id="mask1_334_219" style="mask-type:luminance" maskUnits="userSpaceOnUse" x="31" y="17" width="27" height="30">
<path id="path-2_4" fill-rule="evenodd" clip-rule="evenodd" d="M45.0001 17.777C44.5661 17.5328 44.0507 17.5328 43.6167 17.777L32.1972 24.3683C31.7632 24.6124 31.519 25.0735 31.519 25.5618V38.7715C31.519 39.2598 31.7903 39.7209 32.1972 39.965L43.6167 46.5564C44.0507 46.8005 44.5661 46.8005 45.0001 46.5564L56.4196 39.965C56.8536 39.7209 57.0977 39.2598 57.0977 38.7715V25.5618C57.0977 25.0735 56.8265 24.6124 56.4196 24.3683L45.0001 17.777Z" fill="white"/>
</mask>
<g mask="url(#mask1_334_219)">
<path id="Shape_6" fill-rule="evenodd" clip-rule="evenodd" d="M56.4739 39.9651C56.7994 39.7752 57.0436 39.4497 57.1521 39.0971L44.5662 17.6143C44.2407 17.56 43.888 17.5872 43.5897 17.777L32.1973 24.3412L44.4848 46.7463C44.6475 46.7192 44.8374 46.6649 45.0002 46.5835L56.4739 39.9651Z" fill="url(#paint2_linear_334_219)"/>
<path id="Shape_7" fill-rule="evenodd" clip-rule="evenodd" d="M56.474 39.9651L45.0273 46.5564C44.8646 46.6378 44.7018 46.692 44.512 46.7191L44.729 47.126L57.4234 39.7752V39.6124L57.0979 39.0699C57.0436 39.4497 56.7995 39.7752 56.474 39.9651Z" fill="url(#paint3_linear_334_219)"/>
<path id="Shape_8" fill-rule="evenodd" clip-rule="evenodd" d="M56.474 39.9651L45.0273 46.5564C44.8646 46.6378 44.7018 46.692 44.512 46.7191L44.729 47.126L57.4234 39.7752V39.6124L57.0979 39.0699C57.0436 39.4497 56.7995 39.7752 56.474 39.9651Z" fill="url(#paint4_linear_334_219)"/>
</g>
</g>
</g>
</g>
<defs>
<linearGradient id="paint0_linear_334_219" x1="41.8419" y1="18.9856" x2="29.6864" y2="33.696" gradientUnits="userSpaceOnUse">
<stop stop-color="#41873F"/>
<stop offset="0.3288" stop-color="#418B3D"/>
<stop offset="0.6352" stop-color="#419637"/>
<stop offset="0.9319" stop-color="#3FA92D"/>
<stop offset="1" stop-color="#3FAE2A"/>
</linearGradient>
<linearGradient id="paint1_linear_334_219" x1="49.3234" y1="50.2078" x2="79.7298" y2="38.0604" gradientUnits="userSpaceOnUse">
<stop offset="0.1376" stop-color="#41873F"/>
<stop offset="0.4032" stop-color="#54A044"/>
<stop offset="0.7136" stop-color="#66B848"/>
<stop offset="0.9081" stop-color="#6CC04A"/>
</linearGradient>
<linearGradient id="paint2_linear_334_219" x1="31.102" y1="47.6039" x2="57.5262" y2="47.6039" gradientUnits="userSpaceOnUse">
<stop offset="0.0919165" stop-color="#6CC04A"/>
<stop offset="0.2864" stop-color="#66B848"/>
<stop offset="0.5968" stop-color="#54A044"/>
<stop offset="0.8624" stop-color="#41873F"/>
</linearGradient>
<linearGradient id="paint3_linear_334_219" x1="31.1021" y1="51.3638" x2="57.5262" y2="51.3638" gradientUnits="userSpaceOnUse">
<stop offset="0.0919165" stop-color="#6CC04A"/>
<stop offset="0.2864" stop-color="#66B848"/>
<stop offset="0.5968" stop-color="#54A044"/>
<stop offset="0.8624" stop-color="#41873F"/>
</linearGradient>
<linearGradient id="paint4_linear_334_219" x1="28.3787" y1="20.0867" x2="25.8874" y2="53.6183" gradientUnits="userSpaceOnUse">
<stop stop-color="#41873F"/>
<stop offset="0.3288" stop-color="#418B3D"/>
<stop offset="0.6352" stop-color="#419637"/>
<stop offset="0.9319" stop-color="#3FA92D"/>
<stop offset="1" stop-color="#3FAE2A"/>
</linearGradient>
</defs>
</svg>
