<svg width="69" height="69" viewBox="0 0 69 69" fill="none" xmlns="http://www.w3.org/2000/svg">
<g id="PixiJS" clip-path="url(#clip0_323_1001)">
<path id="Vector" d="M62.2512 22.7268C64.7989 22.7268 66.6592 23.2525 67.9937 23.8591L66.8816 27.9637C65.9717 27.5189 64.3743 26.8921 62.1704 26.8921C59.9664 26.8921 58.8947 27.8829 58.8947 29.0556C58.8947 30.4912 60.1484 31.1383 63.06 32.2301C67.0231 33.7062 68.9036 35.7686 68.8631 38.9431C68.8631 42.7242 65.9515 45.919 59.7844 45.919C57.2165 45.919 54.689 45.2517 53.4152 44.544L54.4464 40.3383C55.8213 41.0258 57.9242 41.7335 60.0877 41.7335C62.4332 41.7335 63.6666 40.7831 63.6666 39.3071C63.6666 37.8917 62.6152 37.1031 59.9057 36.1326C56.6706 35.0002 54.4262 33.322 53.86 30.7743V37.3053C53.86 43.6948 50.7866 45.9392 45.8529 45.9392C44.6802 45.9392 43.1637 45.737 42.1527 45.4135L42.7189 41.3088C43.4266 41.5515 44.3162 41.7132 45.3272 41.7132C47.4705 41.7132 48.805 40.7427 48.805 37.2447V23.0908H53.8802V28.1659C54.5475 25.0116 57.5805 22.7268 62.2512 22.7268ZM7.73852 22.929C10.8726 22.929 13.117 23.5356 14.6133 24.7286C15.8871 25.7396 16.797 27.3571 16.979 29.2578H26.2397L27.8371 31.9673C28.3021 32.7963 28.7469 33.6253 29.1716 34.3937H29.2322C29.6771 33.5242 30.0815 32.6952 30.5061 31.8864L31.9417 29.2578H41.5866V45.5955H31.7799L30.1421 42.6636C29.6771 41.8548 29.2727 41.0258 28.8683 40.1968H28.7672C28.3628 41.0662 27.9382 41.8548 27.5338 42.6636L25.997 45.5955H16.4128V33.0794C16.0691 33.9286 15.5838 34.6767 14.9368 35.2833C13.2181 36.9211 10.6502 37.6491 7.63742 37.6491C6.97016 37.6491 6.36357 37.6086 5.89851 37.548V45.5752H0.86377V23.3941C2.44092 23.1312 4.64488 22.929 7.73852 22.929ZM36.5114 30.6328L32.0832 37.0425L36.5114 44.0183V30.6328ZM21.488 30.6328V43.9981L25.9768 37.2851L21.488 30.6328ZM8.00138 26.7708C6.97017 26.7708 6.26247 26.8719 5.89851 26.973V33.5849C6.32313 33.686 6.86907 33.7264 7.59698 33.7264C10.3064 33.7264 11.9645 32.3717 11.9645 30.0666C11.9645 28.0042 10.5289 26.7708 8.00138 26.7708ZM18.9605 22.1606C20.5983 22.1606 21.6296 23.2525 21.6498 24.7286C21.6498 26.1237 20.5983 27.256 18.9201 27.256C17.3227 27.256 16.2511 26.1237 16.2915 24.7286C16.2511 23.2525 17.3227 22.1606 18.9605 22.1606ZM39.0591 22.1606C40.6969 22.1606 41.7281 23.2525 41.7483 24.7286C41.7483 26.1237 40.6969 27.256 39.0186 27.256C37.4213 27.256 36.3496 26.1237 36.39 24.7286C36.3496 23.2525 37.4213 22.1606 39.0591 22.1606Z" fill="#EA1E63"/>
</g>
<defs>
<clipPath id="clip0_323_1001">
<rect width="68" height="68" fill="white" transform="translate(0.86377 0.11377)"/>
</clipPath>
</defs>
</svg>
