<svg width="69" height="50" viewBox="0 0 69 50" fill="none" xmlns="http://www.w3.org/2000/svg">
<g id="Group">
<path id="Vector" d="M68.8638 17.447V32.6931H53.6176V17.447H68.8638ZM68.8638 0.67627V15.9224H53.6176V0.67627H68.8638ZM52.093 0.67627V15.9224H36.8469V0.67627H52.093ZM35.3223 0.67627V15.9224H20.0761V0.67627H35.3223Z" fill="#F9AD00"/>
<path id="Vector_2" d="M52.093 34.2178V49.4639H36.8469V34.2178H52.093ZM68.8638 34.2178V49.4639H53.6176V34.2178H68.8638ZM35.3223 34.2178V49.4639H20.0761V34.2178H35.3223ZM52.093 17.447V32.6932H36.8469V17.447H52.093ZM3.71967 21.8958C4.23194 21.8958 4.70793 21.962 5.14763 22.0943C5.58733 22.2267 5.96513 22.4295 6.28102 22.7027C6.59692 22.9759 6.84452 23.3195 7.02382 23.7336C7.20311 24.1477 7.29276 24.6408 7.29276 25.2128C7.29276 25.7592 7.21592 26.2373 7.06224 26.6471C6.90856 27.057 6.69084 27.4006 6.40909 27.6781C6.12734 27.9556 5.78796 28.1626 5.39096 28.2992C4.99395 28.4358 4.55211 28.5041 4.06546 28.5041C3.69833 28.5041 3.35682 28.4486 3.04092 28.3376V30.4636L3.02031 30.4695C2.93422 30.4935 2.80448 30.5192 2.6311 30.5468C2.44327 30.5767 2.25117 30.5916 2.0548 30.5916C1.86696 30.5916 1.69834 30.5788 1.54893 30.5532C1.39952 30.5276 1.27359 30.4764 1.17113 30.3995C1.06868 30.3227 0.991837 30.2181 0.94061 30.0858C0.889383 29.9534 0.86377 29.7805 0.86377 29.5671V23.4198L0.864424 23.3743C0.870533 23.1645 0.919408 22.9918 1.01105 22.8563C1.10923 22.7112 1.2437 22.5789 1.41446 22.4593C1.67913 22.2886 2.00784 22.152 2.40058 22.0495C2.79332 21.9471 3.23302 21.8958 3.71967 21.8958ZM18.678 21.8958C19.1902 21.8958 19.6662 21.962 20.1059 22.0943C20.5456 22.2267 20.9234 22.4295 21.2393 22.7027C21.5552 22.9759 21.8028 23.3195 21.9821 23.7336C22.1614 24.1477 22.251 24.6408 22.251 25.2128C22.251 25.7592 22.1742 26.2373 22.0205 26.6471C21.8668 27.057 21.6491 27.4006 21.3674 27.6781C21.0856 27.9556 20.7462 28.1626 20.3492 28.2992C19.9522 28.4358 19.5104 28.5041 19.0237 28.5041C18.6566 28.5041 18.3151 28.4486 17.9992 28.3376V30.4636L17.9786 30.4695C17.8925 30.4935 17.7628 30.5192 17.5894 30.5468C17.4016 30.5767 17.2095 30.5916 17.0131 30.5916C16.8252 30.5916 16.6566 30.5788 16.5072 30.5532C16.3578 30.5276 16.2319 30.4764 16.1294 30.3995C16.027 30.3227 15.9501 30.2181 15.8989 30.0858C15.8477 29.9534 15.8221 29.7805 15.8221 29.5671V23.4198L15.8227 23.3743C15.8288 23.1645 15.8777 22.9918 15.9693 22.8563C16.0675 22.7112 16.202 22.5789 16.3727 22.4593C16.6374 22.2886 16.9661 22.152 17.3589 22.0495C17.7516 21.9471 18.1913 21.8958 18.678 21.8958ZM11.4678 21.8958C12.4325 21.8958 13.1753 22.1072 13.6961 22.5298C14.2169 22.9524 14.4773 23.5394 14.4773 24.2907V28.2992L14.455 28.3056C14.3692 28.3291 14.2422 28.3526 14.0739 28.3761C13.8904 28.4017 13.7004 28.4145 13.504 28.4145C13.3162 28.4145 13.1476 28.4017 12.9982 28.3761C12.8488 28.3504 12.7228 28.2992 12.6204 28.2224C12.5179 28.1455 12.4389 28.0409 12.3834 27.9086C12.3279 27.7763 12.3002 27.6034 12.3002 27.3899V24.3675L12.2996 24.3263C12.2921 24.0826 12.2176 23.9021 12.0761 23.7848C11.9267 23.661 11.7239 23.5991 11.4678 23.5991C11.297 23.5991 11.1284 23.6205 10.9619 23.6632C10.7954 23.7059 10.6524 23.7699 10.5329 23.8553V28.2992L10.5105 28.3056C10.4247 28.3291 10.2977 28.3526 10.1295 28.3761C9.94589 28.4017 9.75592 28.4145 9.55955 28.4145C9.37172 28.4145 9.2031 28.4017 9.05369 28.3761C8.90427 28.3504 8.77834 28.2992 8.67589 28.2224C8.57343 28.1455 8.49446 28.0409 8.43896 27.9086C8.38347 27.7763 8.35572 27.6034 8.35572 27.3899V23.5479L8.35637 23.5024C8.36248 23.2925 8.41136 23.1199 8.503 22.9844C8.60118 22.8393 8.73565 22.7069 8.90641 22.5874C9.19669 22.3825 9.56169 22.216 10.0014 22.0879C10.4411 21.9599 10.9299 21.8958 11.4678 21.8958ZM30.2296 21.8958C30.5541 21.8958 30.8721 21.9385 31.1838 22.0239C31.4954 22.1093 31.7729 22.2438 32.0162 22.4273C32.2595 22.6109 32.4538 22.8542 32.5989 23.1573C32.744 23.4604 32.8166 23.8297 32.8166 24.2651V28.2992L32.7942 28.3056C32.7085 28.3291 32.5815 28.3526 32.4132 28.3761C32.2296 28.4017 32.0397 28.4145 31.8433 28.4145C31.6555 28.4145 31.4868 28.4017 31.3374 28.3761C31.188 28.3504 31.0621 28.2992 30.9596 28.2224C30.8572 28.1455 30.7782 28.0409 30.7227 27.9086C30.6672 27.7763 30.6395 27.6034 30.6395 27.3899V24.3291L30.6388 24.2871C30.6312 24.0526 30.5588 23.8809 30.4217 23.772C30.2766 23.6568 30.0802 23.5991 29.8326 23.5991C29.7131 23.5991 29.585 23.6269 29.4484 23.6824C29.3118 23.7379 29.2094 23.7955 29.1411 23.8553C29.1496 23.8894 29.1539 23.9214 29.1539 23.9513V28.2992L29.1295 28.3056C29.0365 28.3291 28.9059 28.3526 28.7377 28.3761C28.5541 28.4017 28.3684 28.4145 28.1806 28.4145C27.9927 28.4145 27.8241 28.4017 27.6747 28.3761C27.5253 28.3504 27.3994 28.2992 27.2969 28.2224C27.1944 28.1455 27.1155 28.0409 27.06 27.9086C27.0045 27.7763 26.9767 27.6034 26.9767 27.3899V24.3291L26.9761 24.2893C26.9682 24.0536 26.8894 23.8812 26.7398 23.772C26.5819 23.6568 26.3919 23.5991 26.1699 23.5991C26.0162 23.5991 25.8839 23.6226 25.7729 23.6696C25.6619 23.7165 25.568 23.7614 25.4911 23.804V28.2992L25.4688 28.3056C25.383 28.3291 25.256 28.3526 25.0877 28.3761C24.9042 28.4017 24.7142 28.4145 24.5178 28.4145C24.33 28.4145 24.1614 28.4017 24.012 28.3761C23.8626 28.3504 23.7366 28.2992 23.6342 28.2224C23.5317 28.1455 23.4527 28.0409 23.3972 27.9086C23.3417 27.7763 23.314 27.6034 23.314 27.3899V23.5223L23.3147 23.4768C23.3208 23.2675 23.3696 23.0991 23.4613 22.9716C23.5595 22.835 23.6939 22.7069 23.8647 22.5874C24.155 22.3825 24.5157 22.216 24.9469 22.0879C25.378 21.9599 25.8284 21.8958 26.298 21.8958C26.648 21.8958 26.9917 21.9449 27.3289 22.0431C27.6662 22.1413 27.9586 22.2886 28.2062 22.485C28.4623 22.3142 28.7505 22.1733 29.0706 22.0623C29.3908 21.9513 29.7771 21.8958 30.2296 21.8958ZM3.79652 23.5991C3.6343 23.5991 3.48915 23.6184 3.36109 23.6568C3.23302 23.6952 3.12203 23.74 3.02811 23.7912V26.6087L3.08005 26.6336C3.1678 26.6739 3.26148 26.7083 3.36109 26.7368C3.48062 26.7709 3.60868 26.788 3.74529 26.788C4.62469 26.788 5.06438 26.2629 5.06438 25.2128C5.06438 24.6664 4.95553 24.2608 4.73781 23.9961C4.5201 23.7315 4.20633 23.5991 3.79652 23.5991ZM18.7548 23.5991C18.5926 23.5991 18.4474 23.6184 18.3194 23.6568C18.1913 23.6952 18.0803 23.74 17.9864 23.7912V26.6087L18.0383 26.6336C18.1261 26.6739 18.2198 26.7083 18.3194 26.7368C18.4389 26.7709 18.567 26.788 18.7036 26.788C19.583 26.788 20.0227 26.2629 20.0227 25.2128C20.0227 24.6664 19.9138 24.2608 19.6961 23.9961C19.4784 23.7315 19.1646 23.5991 18.7548 23.5991Z" fill="#4E4E4E"/>
</g>
</svg>
