<svg width="69" height="69" viewBox="0 0 69 69" fill="none" xmlns="http://www.w3.org/2000/svg">
<g id="React" clip-path="url(#clip0_323_966)">
<path id="Vector" d="M56.7734 23.4419C56.068 23.1991 55.337 22.9694 54.5844 22.7521C54.7081 22.2473 54.8217 21.7489 54.9226 21.2591C56.5796 13.2157 55.4962 6.73587 51.7967 4.60243C48.2492 2.55675 42.4477 4.6897 36.5885 9.78884C36.025 10.2792 35.46 10.7983 34.8952 11.3424C34.5189 10.9824 34.1432 10.6345 33.7685 10.3018C27.6278 4.84947 21.4727 2.55179 17.7768 4.6914C14.2328 6.74301 13.1832 12.8347 14.6748 20.4575C14.8188 21.1937 14.9872 21.9456 15.1776 22.7101C14.3065 22.9574 13.4655 23.221 12.6608 23.5015C5.46156 26.0115 0.86377 29.9452 0.86377 34.0256C0.86377 38.2398 5.7995 42.4667 13.2981 45.0297C13.8899 45.232 14.5039 45.4232 15.1367 45.6048C14.9313 46.4316 14.7526 47.2418 14.6027 48.0321C13.1805 55.5226 14.2911 61.4703 17.8257 63.509C21.4766 65.6144 27.6038 63.4503 33.5702 58.235C34.0418 57.8227 34.5151 57.3855 34.9892 56.9273C35.6037 57.519 36.2172 58.0791 36.8275 58.6044C42.6066 63.5775 48.3145 65.5857 51.8458 63.5413C55.4931 61.4299 56.6784 55.0406 55.1395 47.267C55.022 46.6733 54.8852 46.0668 54.7316 45.4495C55.1619 45.3223 55.5843 45.191 55.9962 45.0544C63.7917 42.4716 68.8638 38.2961 68.8638 34.0256C68.8638 29.9305 64.1177 25.9702 56.7734 23.4419ZM55.0826 42.297C54.7108 42.4201 54.3293 42.5391 53.9405 42.6545C53.0799 39.93 51.9184 37.0329 50.4971 34.0397C51.8534 31.1179 52.97 28.2578 53.8065 25.551C54.5021 25.7523 55.1773 25.9646 55.8279 26.1887C62.1204 28.3549 65.9588 31.5577 65.9588 34.0256C65.9588 36.6543 61.8135 40.0668 55.0826 42.297ZM52.2898 47.8312C52.9702 51.2686 53.0674 54.3764 52.6167 56.8059C52.2117 58.9889 51.3972 60.4444 50.3902 61.0273C48.2472 62.2677 43.6644 60.6554 38.722 56.4023C38.1554 55.9148 37.5847 55.3942 37.0122 54.8432C38.9283 52.7477 40.8432 50.3115 42.7122 47.6059C45.9995 47.3142 49.1052 46.8373 51.9217 46.1863C52.0604 46.7458 52.1836 47.2946 52.2898 47.8312ZM24.0465 60.813C21.9528 61.5524 20.2852 61.5736 19.2772 60.9924C17.1323 59.7552 16.2406 54.9797 17.4569 48.5739C17.5962 47.8403 17.762 47.0867 17.9532 46.3164C20.7388 46.9323 23.8217 47.3756 27.1169 47.6427C28.9985 50.2902 30.9687 52.7237 32.9543 54.8545C32.5205 55.2733 32.0883 55.672 31.6587 56.0477C29.0204 58.3538 26.3765 59.99 24.0465 60.813ZM14.2376 42.2809C10.9219 41.1476 8.18361 39.6747 6.30666 38.0674C4.6201 36.6231 3.76859 35.1891 3.76859 34.0256C3.76859 31.5495 7.46016 28.3912 13.6171 26.2446C14.3641 25.9841 15.1461 25.7386 15.9577 25.5081C16.8086 28.276 17.9248 31.1699 19.2719 34.0963C17.9074 37.0661 16.7753 40.0061 15.9161 42.8065C15.3375 42.6402 14.777 42.4652 14.2376 42.2809ZM17.5256 19.8996C16.2477 13.3686 17.0964 8.44179 19.2322 7.2055C21.5071 5.88847 26.5376 7.76627 31.8396 12.4741C32.1785 12.775 32.5188 13.0899 32.86 13.4158C30.8842 15.5372 28.932 17.9524 27.0672 20.5843C23.8691 20.8807 20.8077 21.3569 17.9931 21.9945C17.8161 21.2827 17.6594 20.5833 17.5256 19.8996ZM46.8578 27.1425C46.1849 25.9802 45.4941 24.8455 44.7899 23.7417C46.9596 24.016 49.0383 24.3801 50.9904 24.8256C50.4043 26.7039 49.6739 28.6678 48.814 30.681C48.1972 29.51 47.5448 28.3292 46.8578 27.1425ZM34.8962 15.4918C36.2361 16.9435 37.5779 18.5642 38.8978 20.3226C37.5678 20.2598 36.2213 20.2271 34.8638 20.2271C33.519 20.2271 32.1825 20.2591 30.8608 20.3208C32.1819 18.5787 33.5354 16.9602 34.8962 15.4918ZM22.858 27.1625C22.1859 28.328 21.5456 29.5024 20.9385 30.6789C20.0925 28.6726 19.3688 26.6998 18.7777 24.7949C20.7178 24.3607 22.7867 24.0057 24.9426 23.7367C24.2284 24.8506 23.532 25.9937 22.858 27.1623V27.1625ZM25.0047 44.5217C22.7773 44.2732 20.6773 43.9365 18.7376 43.5143C19.3382 41.5754 20.0779 39.5605 20.9417 37.511C21.5504 38.6867 22.1933 39.8615 22.8695 41.0295H22.8696C23.5585 42.2194 24.2721 43.385 25.0047 44.5217ZM34.9766 52.7641C33.5998 51.2786 32.2264 49.6354 30.8852 47.8679C32.1872 47.9189 33.5147 47.9451 34.8638 47.9451C36.2498 47.9451 37.6199 47.9138 38.9686 47.8538C37.6444 49.6532 36.3074 51.2989 34.9766 52.7641ZM48.8417 37.4066C49.7506 39.4781 50.5168 41.4826 51.1251 43.3884C49.1535 43.8382 47.0248 44.2005 44.782 44.4697C45.4879 43.351 46.1847 42.1968 46.8694 41.0095C47.5621 39.8083 48.2198 38.6053 48.8417 37.4066ZM44.3531 39.5583C43.2901 41.4013 42.1989 43.1608 41.091 44.8215C39.0731 44.9658 36.9885 45.0401 34.8638 45.0401C32.7476 45.0401 30.6893 44.9744 28.7071 44.8457C27.5546 43.1632 26.4396 41.3986 25.3834 39.5741H25.3836C24.3302 37.7547 23.3607 35.9198 22.4822 34.0953C23.3605 32.2665 24.3274 30.4296 25.3748 28.6134L25.3745 28.6138C26.4247 26.7928 27.5299 25.0367 28.6718 23.3647C30.6941 23.2118 32.7679 23.1321 34.8636 23.1321H34.8638C36.969 23.1321 39.0454 23.2124 41.0671 23.3666C42.1916 25.0264 43.2893 26.7768 44.3435 28.5981C45.4098 30.4398 46.3892 32.2645 47.275 34.054C46.3919 35.8743 45.4146 37.7174 44.3531 39.5583ZM50.3456 7.11908C52.6227 8.43223 53.5083 13.7282 52.0776 20.6728C51.9863 21.1159 51.8836 21.5673 51.772 22.0247C48.9508 21.3737 45.8873 20.8893 42.6799 20.5884C40.8114 17.9276 38.8751 15.5087 36.9316 13.4144C37.4541 12.9118 37.9759 12.4325 38.4955 11.9801C43.5158 7.61122 48.2078 5.88629 50.3456 7.11908ZM34.8638 27.9534C38.2173 27.9534 40.9359 30.6719 40.9359 34.0256C40.9359 37.3791 38.2173 40.0977 34.8638 40.0977C31.5103 40.0977 28.7916 37.3791 28.7916 34.0256C28.7916 30.6719 31.5103 27.9534 34.8638 27.9534Z" fill="#00D8FF"/>
</g>
<defs>
<clipPath id="clip0_323_966">
<rect width="68" height="68" fill="white" transform="translate(0.86377 0.11377)"/>
</clipPath>
</defs>
</svg>
