<svg width="67" height="58" viewBox="0 0 67 58" fill="none" xmlns="http://www.w3.org/2000/svg">
<g id="Vector">
<path fill-rule="evenodd" clip-rule="evenodd" d="M63.7411 44.228C60.219 46.064 41.973 53.566 38.0885 55.5909C34.2041 57.6164 32.0462 57.5968 28.9776 56.1298C25.909 54.6628 6.49203 46.8196 2.99444 45.1479C1.24616 44.3123 0.327026 43.6072 0.327026 42.941V36.2699C0.327026 36.2699 25.6053 30.7667 29.6863 29.3028C33.7671 27.8386 35.1831 27.7858 38.6559 29.0579C42.129 30.3302 62.8947 34.0768 66.327 35.334C66.327 35.334 66.3255 41.2922 66.3255 41.9107C66.326 42.5702 65.534 43.2937 63.7411 44.228Z" fill="#912626"/>
<path fill-rule="evenodd" clip-rule="evenodd" d="M63.7399 37.5963C60.2179 39.4314 41.9725 46.9337 38.0881 48.9586C34.2039 50.9842 32.046 50.9643 28.9775 49.4974C25.9087 48.0315 6.49265 40.187 2.99517 38.5161C-0.502315 36.8442 -0.575792 35.6936 2.86007 34.3483C6.29568 33.0026 25.6053 25.4267 29.6867 23.9626C33.7674 22.499 35.183 22.4457 38.6558 23.7182C42.1287 24.9903 60.2653 32.2093 63.6973 33.4661C67.1301 34.7245 67.2618 35.7604 63.7399 37.5963Z" fill="#C6302B"/>
<path fill-rule="evenodd" clip-rule="evenodd" d="M63.7411 33.4337C60.219 35.2696 41.973 42.7717 38.0885 44.7974C34.2041 46.8221 32.0462 46.8025 28.9776 45.3355C25.9088 43.8692 6.49203 36.0253 2.99444 34.3536C1.24616 33.518 0.327026 32.8136 0.327026 32.1474V25.4756C0.327026 25.4756 25.6053 19.9726 29.6863 18.5085C33.7671 17.0446 35.1831 16.9915 38.6559 18.2635C42.129 19.5359 62.8947 23.2818 66.327 24.5391C66.327 24.5391 66.3255 30.4974 66.3255 31.1167C66.326 31.7759 65.534 32.4994 63.7411 33.4337Z" fill="#912626"/>
<path fill-rule="evenodd" clip-rule="evenodd" d="M63.7399 26.8019C60.2179 28.6376 41.9725 36.1394 38.0881 38.165C34.2039 40.1899 32.046 40.17 28.9775 38.7031C25.9087 37.2371 6.49265 29.393 2.99517 27.7218C-0.502315 26.0504 -0.575792 24.8995 2.86007 23.5538C6.29568 22.2088 25.6053 14.6324 29.6867 13.1686C33.7674 11.7047 35.183 11.6516 38.6558 12.9239C42.1287 14.1959 60.2653 21.4144 63.6973 22.6718C67.1301 23.9296 67.2618 24.9661 63.7399 26.8017V26.8019Z" fill="#C6302B"/>
<path fill-rule="evenodd" clip-rule="evenodd" d="M63.7411 22.239C60.219 24.0749 41.973 31.5773 38.0885 33.603C34.2041 35.6279 32.0462 35.608 28.9776 34.141C25.9088 32.6748 6.49203 24.8306 2.99444 23.1594C1.24616 22.3236 0.327026 21.6189 0.327026 20.9533V14.2811C0.327026 14.2811 25.6053 8.77846 29.6863 7.31455C33.7671 5.85039 35.1831 5.79753 38.6559 7.06962C42.129 8.34197 62.8947 12.0878 66.327 13.3452C66.327 13.3452 66.3255 19.3035 66.3255 19.9225C66.326 20.5812 65.534 21.3047 63.7411 22.239Z" fill="#912626"/>
<path fill-rule="evenodd" clip-rule="evenodd" d="M63.7399 15.6073C60.2179 17.4429 41.9725 24.9452 38.0881 26.9703C34.2039 28.9952 32.046 28.9753 28.9775 27.5089C25.909 26.0425 6.49265 18.1988 2.99517 16.5274C-0.502315 14.856 -0.575792 13.7049 2.86007 12.3593C6.29568 11.0141 25.6053 3.43851 29.6867 1.97414C33.7674 0.510022 35.183 0.457428 38.6558 1.72973C42.1287 3.00204 60.2653 10.2205 63.6973 11.4779C67.1301 12.735 67.2618 13.7716 63.7399 15.6073Z" fill="#C6302B"/>
<path fill-rule="evenodd" clip-rule="evenodd" d="M41.3922 9.11752L35.718 9.70666L34.4476 12.7631L32.3957 9.35236L25.8436 8.76347L30.7327 7.0004L29.2658 4.29389L33.8431 6.08408L38.1584 4.67122L36.9922 7.46982L41.3922 9.11752Z" fill="white"/>
<path fill-rule="evenodd" clip-rule="evenodd" d="M34.1086 23.9463L23.5184 19.554L38.6936 17.2248L34.1086 23.9463Z" fill="white"/>
<path fill-rule="evenodd" clip-rule="evenodd" d="M19.4262 10.8164C23.9058 10.8164 27.5371 12.2241 27.5371 13.9603C27.5371 15.6968 23.9058 17.1043 19.4262 17.1043C14.9469 17.1043 11.3154 15.6968 11.3154 13.9603C11.3154 12.2241 14.9469 10.8164 19.4262 10.8164Z" fill="white"/>
<path fill-rule="evenodd" clip-rule="evenodd" d="M48.0983 9.95301L57.0794 13.5022L48.106 17.0478L48.0983 9.95301Z" fill="#621B1C"/>
<path fill-rule="evenodd" clip-rule="evenodd" d="M38.1622 13.8833L48.0983 9.95301L48.106 17.0478L47.1318 17.4289L38.1622 13.8833Z" fill="#9A2928"/>
</g>
</svg>
