<svg width="69" height="69" viewBox="0 0 69 69" fill="none" xmlns="http://www.w3.org/2000/svg">
<g id="Redux">
<path id="vector" d="M47.1608 45.9204C49.5133 45.681 51.2981 43.6871 51.2169 41.2943C51.136 38.9016 49.1077 36.9874 46.674 36.9874H46.5118C43.9967 37.0672 42.0498 39.1408 42.131 41.6133C42.2122 42.8097 42.6988 43.8465 43.4289 44.5643C40.6707 49.9083 36.4523 53.8164 30.1246 57.0865C25.825 59.3197 21.3632 60.1174 16.9015 59.5592C13.2508 59.0806 10.4114 57.4855 8.62641 54.8532C6.03059 50.9451 5.78729 46.7178 7.9777 42.4907C9.51916 39.4598 11.9526 37.2265 13.4941 36.1099C13.1696 35.0731 12.6828 33.3185 12.4395 32.0424C0.676335 40.4171 1.89331 51.7428 5.46281 57.0865C8.13982 61.0746 13.5753 63.5471 19.5785 63.5471C21.2008 63.5471 22.8232 63.3875 24.4459 62.9889C34.8299 60.9948 42.699 54.933 47.1608 45.9204ZM61.4388 36.0303C55.2732 28.9317 46.1874 25.0237 35.8033 25.0237H34.5054C33.7753 23.588 32.2338 22.6308 30.5303 22.6308H30.3679C27.8533 22.7106 25.9064 24.7842 25.9873 27.2569C26.0685 29.6496 28.0966 31.5638 30.5303 31.5638H30.6924C32.4771 31.484 34.0186 30.3674 34.6675 28.8519H36.1278C42.2934 28.8519 48.1342 30.6066 53.4075 34.0363C57.4636 36.6684 60.3842 40.0981 62.0066 44.2453C63.3857 47.5952 63.3045 50.8653 61.8442 53.657C59.5729 57.8841 55.7601 60.1972 50.7303 60.1972C47.4853 60.1972 44.4026 59.2399 42.78 58.5221C41.8877 59.3197 40.2651 60.5958 39.1293 61.3936C42.6179 62.9886 46.1874 63.8661 49.5945 63.8661C57.3825 63.8661 63.1424 59.6388 65.3328 55.4117C67.6853 50.7855 67.5229 42.8097 61.4388 36.0303ZM20.2274 47.276C20.3086 49.6689 22.3366 51.5829 24.7703 51.5829H24.9327C27.4476 51.5033 29.3945 49.4294 29.3133 46.957C29.2323 44.5641 27.2041 42.6501 24.7703 42.6501H24.6082C24.4459 42.6501 24.2023 42.6501 24.0405 42.7296C20.7143 37.3061 19.3352 31.4042 19.822 25.0234C20.1462 20.2379 21.7689 16.0904 24.6082 12.6606C26.9608 9.70957 31.5037 8.27393 34.5866 8.19437C43.1856 8.03474 46.8361 18.5628 47.0796 22.7901C48.1342 23.0293 49.919 23.5878 51.136 23.9866C50.1623 11.0659 42.0498 4.36609 34.2621 4.36609C26.9608 4.36609 20.2274 9.55043 17.5502 17.2072C13.8185 27.4163 16.2523 37.2265 20.7952 44.9632C20.3898 45.5214 20.1462 46.3988 20.2274 47.2762V47.276Z" fill="#764ABC"/>
</g>
</svg>
