<svg width="69" height="62" viewBox="0 0 69 62" fill="none" xmlns="http://www.w3.org/2000/svg">
<g id="Group">
<path id="Vector" d="M42.8272 38.5478L41.5229 40.8127C41.13 41.495 40.4026 41.9155 39.6152 41.9155H29.6231C28.8358 41.9155 28.1084 41.495 27.7154 40.8127L26.411 38.5478H42.8272ZM46.4788 32.2073L44.1789 36.2007H25.0593L22.7595 32.2073H46.4788ZM44.2634 26.0071L46.4825 29.8603H22.7559L24.9749 26.0071H44.2634ZM39.6152 20.1458C40.4026 20.1458 41.13 20.5662 41.5229 21.2485L42.9117 23.66H26.3266L27.7154 21.2485C28.1084 20.5662 28.8358 20.1458 29.6231 20.1458H39.6152Z" fill="#00435B"/>
<path id="Vector_2" d="M15.0808 19.0948C13.9739 13.7276 13.7364 9.61096 14.4518 6.62173C14.8774 4.84392 15.6553 3.39359 16.8383 2.34721C18.0871 1.24251 19.6661 0.700428 21.4403 0.700428C24.3671 0.700428 27.444 2.03511 30.7321 4.57065C32.0733 5.60484 33.4653 6.85141 34.9109 8.31104C35.0259 8.16291 35.156 8.02319 35.3009 7.89406C39.3879 4.25198 42.8288 1.98911 45.7718 1.11661C47.5218 0.597827 49.1647 0.548402 50.6609 1.0519C52.2401 1.58338 53.4985 2.68202 54.3863 4.22086C55.8515 6.7605 56.2379 10.0976 55.6917 14.2181C55.469 15.8976 55.0883 17.7271 54.5505 19.7094C54.7534 19.7339 54.9568 19.7789 55.1582 19.8457C60.3437 21.5641 64.0156 23.412 66.2386 25.5239C67.5613 26.7804 68.425 28.1792 68.7372 29.7277C69.0668 31.3621 68.7454 33.0014 67.8586 34.5391C66.3962 37.0751 63.7071 39.0752 59.8762 40.6594C58.3379 41.2955 56.5975 41.8716 54.6529 42.3897C54.7417 42.5901 54.8105 42.8028 54.8565 43.026C55.9634 48.3932 56.201 52.5098 55.4855 55.4991C55.06 57.2769 54.282 58.7272 53.099 59.7736C51.8502 60.8783 50.2712 61.4204 48.497 61.4204C45.5702 61.4204 42.4933 60.0857 39.2052 57.5502C37.8497 56.5049 36.4424 55.2428 34.9802 53.7631C34.8298 53.9984 34.6451 54.2172 34.4266 54.4118C30.3396 58.0539 26.8987 60.3168 23.9557 61.1893C22.2058 61.7081 20.5628 61.7575 19.0667 61.254C17.4874 60.7225 16.229 59.6239 15.3412 58.085C13.876 55.5454 13.4896 52.2083 14.0359 48.0878C14.2666 46.3475 14.6669 44.4463 15.236 42.3809C15.0135 42.3583 14.7902 42.3113 14.5693 42.2381C9.38384 40.5197 5.71196 38.6718 3.48892 36.5599C2.16627 35.3034 1.30256 33.9046 0.990334 32.3561C0.66078 30.7217 0.982121 29.0824 1.8689 27.5447C3.33138 25.0087 6.02044 23.0086 9.85137 21.4244C11.4354 20.7693 13.2339 20.1779 15.249 19.6479C15.1772 19.4721 15.1205 19.2873 15.0808 19.0948Z" fill="#002B3B"/>
<path id="Vector_3" d="M51.2388 43.5537C51.7544 43.4623 52.2485 43.7929 52.3636 44.3L52.3699 44.33L52.4249 44.6154C54.2072 53.9858 52.9517 58.671 48.6584 58.671C44.4578 58.671 39.1106 54.6731 32.6166 46.6774C32.4731 46.5007 32.3957 46.2795 32.3976 46.052C32.4023 45.5218 32.8278 45.0938 33.3542 45.0823L33.3847 45.0821L33.7266 45.0846C36.4593 45.0994 39.1159 45.0041 41.6964 44.7987C44.7425 44.5563 47.9233 44.1413 51.2388 43.5537ZM21.7541 36.4706L21.7706 36.4984L21.9422 36.7979C23.3173 39.1886 24.7499 41.4576 26.2402 43.605C27.9952 46.1339 29.9688 48.694 32.161 51.2854C32.5001 51.6863 32.4614 52.2813 32.0788 52.6352L32.0539 52.6574L31.8334 52.8473C24.5802 59.0621 19.8659 60.3027 17.6906 56.5693C15.5612 52.9149 16.3332 46.2701 20.0066 36.6349C20.0873 36.4232 20.239 36.246 20.4358 36.1337C20.8957 35.8712 21.4789 36.0228 21.7541 36.4706ZM54.9194 22.6439L54.9491 22.6535L55.2221 22.7478C64.1749 25.8621 67.5764 29.2847 65.4263 33.0154C63.3236 36.6642 57.2106 39.3208 47.0873 40.9852C46.8616 41.0223 46.6299 40.9792 46.4327 40.8632C45.9669 40.5894 45.8113 39.9897 46.0851 39.5239C47.535 37.0575 48.8409 34.6035 50.0027 32.1617C51.3204 29.3925 52.5569 26.4201 53.7123 23.2445C53.8875 22.7631 54.4021 22.5016 54.8896 22.6352L54.9194 22.6439ZM23.2949 21.0758C23.7607 21.3497 23.9164 21.9493 23.6425 22.4151C22.1926 24.8815 20.8867 27.3356 19.7249 29.7774C18.4072 32.5466 17.1707 35.519 16.0153 38.6945C15.8365 39.1858 15.3043 39.4481 14.8082 39.2952L14.7785 39.2855L14.5055 39.1912C5.55267 36.0769 2.15126 32.6544 4.30126 28.9237C6.40403 25.2749 12.517 22.6183 22.6403 20.9538C22.8661 20.9167 23.0977 20.9599 23.2949 21.0758ZM52.037 5.73665C54.1664 9.3911 53.3944 16.0359 49.721 25.6711C49.6403 25.8828 49.4886 26.0599 49.2918 26.1723C48.8319 26.4348 48.2488 26.2832 47.9735 25.8353L47.957 25.8075L47.7854 25.5081C46.4104 23.1174 44.9777 20.8484 43.4874 18.701C41.7324 16.1721 39.7588 13.6119 37.5666 11.0206C37.2275 10.6197 37.2662 10.0247 37.6488 9.67079L37.6737 9.64853L37.8943 9.45868C45.1474 3.2439 49.8617 2.00323 52.037 5.73665ZM21.4361 3.5127C25.6367 3.5127 30.984 7.51057 37.4779 15.5063C37.6214 15.683 37.6988 15.9041 37.6969 16.1317C37.6922 16.6619 37.2667 17.0898 36.7403 17.1013L36.7099 17.1015L36.3679 17.0991C33.6352 17.0843 30.9786 17.1796 28.3981 17.3849C25.352 17.6274 22.1712 18.0424 18.8557 18.63C18.3401 18.7213 17.846 18.3908 17.7309 17.8837L17.7246 17.8536L17.6697 17.5682C15.8874 8.19788 17.1428 3.5127 21.4361 3.5127Z" fill="#FF4154"/>
<path id="Vector_4" d="M38.8137 20.2681H30.4264C29.1998 20.2681 28.0668 20.9241 27.4563 21.988L23.2449 29.3261C22.6391 30.3817 22.6391 31.6796 23.2449 32.7352L27.4563 40.0733C28.0668 41.1372 29.1998 41.7932 30.4264 41.7932H38.8137C40.0403 41.7932 41.1733 41.1372 41.7838 40.0733L45.9952 32.7352C46.601 31.6796 46.601 30.3817 45.9952 29.3261L41.7838 21.988C41.1733 20.9241 40.0403 20.2681 38.8137 20.2681Z" fill="#FFD94C"/>
</g>
</svg>
