<svg width="67" height="60" viewBox="0 0 67 60" fill="none" xmlns="http://www.w3.org/2000/svg">
<path id="Shape" fill-rule="evenodd" clip-rule="evenodd" d="M65.0948 48.7887C66.5861 51.3786 66.7306 54.1018 65.4912 56.2545C64.2537 58.4091 61.8324 59.6429 58.8479 59.6429H53.2235C53.2902 58.5943 53.3347 57.5365 53.3347 56.4713C53.3347 55.2782 53.2791 54.1 53.1976 52.9255L56.8972 52.9218C57.8068 52.9218 58.5422 52.1826 58.5422 51.2711C58.5422 50.9858 58.47 50.7209 58.344 50.4838L34.7646 9.49957C34.4849 9.00123 33.9495 8.66407 33.3363 8.66407C32.7398 8.66407 32.2173 8.98271 31.9283 9.46067L28.1843 15.9687C39.5628 24.5461 47.212 37.8345 48.2587 52.9218C48.3402 54.0944 48.3958 55.2727 48.3958 56.4676C48.3958 57.5328 48.3513 58.5888 48.2865 59.6392H29.9183C30.0184 58.5943 30.0758 57.5384 30.0758 56.4676C30.0758 55.269 30.0054 54.087 29.8757 52.9218C28.9679 44.6186 24.9034 37.2602 18.9178 32.0675L16.339 36.547C20.8611 40.756 23.9475 46.4878 24.7867 52.9218C24.9386 54.0833 25.0238 55.2653 25.0238 56.4676C25.0238 57.5384 24.9534 58.598 24.833 59.6392H7.80613C4.82166 59.6392 2.40036 58.4035 1.16285 56.249C-0.0765161 54.0963 0.0679837 51.3749 1.5593 48.7831L5.05508 42.792C7.05955 43.8683 8.86024 45.2707 10.396 46.9306L8.31188 50.4801C8.18776 50.7154 8.11366 50.9821 8.11366 51.2674C8.11366 52.1789 8.84913 52.9162 9.75873 52.9162L18.0175 52.9199C17.3246 48.961 15.498 45.3892 12.8822 42.5604C11.3408 40.8986 9.54013 39.4925 7.53566 38.4162L16.7577 22.3934C18.7214 23.492 20.5795 24.7517 22.3173 26.1634C30.2647 32.6121 35.6316 42.1362 36.6042 52.9181H41.5468C40.539 40.3132 34.2051 29.1979 24.8052 21.8395C23.0435 20.4612 21.1779 19.2126 19.2179 18.1121L27.0895 4.43652C28.5789 1.84479 30.8576 0.357178 33.3363 0.357178C35.8132 0.357178 38.09 1.84479 39.5813 4.43652L65.0948 48.7887Z" fill="#FB2D26"/>
</svg>
