<svg width="56" height="69" viewBox="0 0 56 69" fill="none" xmlns="http://www.w3.org/2000/svg">
<g id="Group">
<path id="Vector" d="M2.61334 62.7735L0.506843 6.6448C0.437273 4.79109 1.85863 3.22009 3.71004 3.10438L51.4514 0.120544C53.3359 0.00276177 54.9591 1.43498 55.0769 3.31948C55.0813 3.39049 55.0836 3.46161 55.0836 3.53275V64.6949C55.0836 66.5831 53.5529 68.1138 51.6647 68.1138C51.6136 68.1138 51.5624 68.1126 51.5113 68.1103L5.8764 66.0607C4.0991 65.9809 2.68007 64.5514 2.61334 62.7735Z" fill="#FF4785"/>
<path id="Vector_2" d="M40.8069 8.47205L41.133 0.62891L47.6894 0.11377L47.9718 8.20213C47.9817 8.48363 47.7614 8.71979 47.4799 8.72962C47.3594 8.73383 47.2413 8.69519 47.1465 8.62055L44.6182 6.62882L41.6247 8.89956C41.4003 9.06979 41.0804 9.02587 40.9102 8.80146C40.8385 8.707 40.802 8.59052 40.8069 8.47205ZM32.422 25.7439C32.422 27.074 41.3817 26.4365 42.5844 25.5022C42.5844 16.4443 37.7241 11.6845 28.8242 11.6845C19.9242 11.6845 14.9377 16.5183 14.9377 23.7691C14.9377 36.3976 31.9802 36.6393 31.9802 43.5275C31.9802 45.461 31.0334 46.6091 28.9504 46.6091C26.2362 46.6091 25.1632 45.2229 25.2894 40.5099C25.2894 39.4875 14.9377 39.1687 14.6221 40.5099C13.8184 51.9312 20.9341 55.2255 29.0767 55.2255C36.9667 55.2255 43.1525 51.02 43.1525 43.4066C43.1525 29.8719 25.8575 30.2344 25.8575 23.5274C25.8575 20.8084 27.8774 20.4459 29.0767 20.4459C30.3391 20.4459 32.6114 20.6684 32.422 25.7439Z" fill="white"/>
</g>
</svg>
