<svg width="66" height="65" viewBox="0 0 66 65" fill="none" xmlns="http://www.w3.org/2000/svg">
<g id="Group">
<path id="Vector" d="M64.4192 0H21.0409V21.7496H42.3851C43.1455 21.7496 43.7624 22.3665 43.7624 23.1269V44.1765H65.7965V1.37981C65.7971 1.01409 65.6523 0.663125 65.394 0.404288C65.1356 0.145452 64.7849 0 64.4192 0Z" fill="#8E75FF"/>
<path id="Vector_2" opacity="0.405" d="M21.0383 0V21.7496H0.688701C0.409069 21.7491 0.157394 21.5798 0.0514516 21.3211C-0.0544907 21.0623 0.00625639 20.7651 0.205265 20.5687L21.0383 0ZM44.9357 64.7678C44.7375 64.9624 44.4421 65.0192 44.1859 64.912C43.9297 64.8048 43.7628 64.5545 43.7623 64.2768V44.1765H65.7964L44.9357 64.7653V64.7678Z" fill="#8E75FF"/>
<path id="Vector_3" opacity="0.405" d="M21.0383 21.7496H43.0749C43.4526 21.7496 43.7623 22.0568 43.7623 22.437V44.1765H22.4181C21.6575 44.1765 21.0408 43.5599 21.0408 42.7992V21.7496H21.0383Z" fill="#8E75FF"/>
</g>
</svg>
