<svg width="68" height="69" viewBox="0 0 68 69" fill="none" xmlns="http://www.w3.org/2000/svg">
<g id="TailwindCSS">
<path id="Vector" d="M34 13.6606C24.9333 13.6606 19.2667 18.194 17 27.2606C20.4 22.7273 24.3667 21.0273 28.9 22.1606C31.4865 22.8073 33.3352 24.6837 35.3815 26.7608C38.715 30.1445 42.5732 34.0606 51 34.0606C60.0667 34.0606 65.7333 29.5273 68 20.4606C64.6 24.994 60.6333 26.694 56.1 25.5606C53.5135 24.914 51.6648 23.0376 49.6185 20.9604C46.285 17.5768 42.4268 13.6606 34 13.6606ZM17 34.0606C7.93333 34.0606 2.26667 38.594 0 47.6606C3.4 43.1273 7.36667 41.4273 11.9 42.5606C14.4865 43.2073 16.3352 45.0837 18.3815 47.1608C21.715 50.5445 25.5732 54.4606 34 54.4606C43.0667 54.4606 48.7333 49.9273 51 40.8606C47.6 45.394 43.6333 47.094 39.1 45.9606C36.5135 45.314 34.6648 43.4376 32.6185 41.3604C29.285 37.9768 25.4268 34.0606 17 34.0606Z" fill="url(#paint0_linear_323_959)"/>
</g>
<defs>
<linearGradient id="paint0_linear_323_959" x1="-1.88889" y1="26.7166" x2="56.8403" y2="60.5785" gradientUnits="userSpaceOnUse">
<stop stop-color="#2298BD"/>
<stop offset="1" stop-color="#0ED7B5"/>
</linearGradient>
</defs>
</svg>
