<svg width="68" height="69" viewBox="0 0 68 69" fill="none" xmlns="http://www.w3.org/2000/svg">
<g id="Group">
<path id="Vector" d="M5.3125 0.11377H62.6875C65.6215 0.11377 68 2.49226 68 5.42627V62.8013C68 65.7353 65.6215 68.1138 62.6875 68.1138H5.3125C2.37849 68.1138 0 65.7353 0 62.8013V5.42627C0 2.49226 2.37849 0.11377 5.3125 0.11377Z" fill="#3178C6"/>
<path id="Vector_2" d="M39.9813 53.3649V60.7015C41.1745 61.313 42.5858 61.7714 44.2149 62.0772C45.844 62.3829 47.561 62.5356 49.3661 62.5356C51.1251 62.5356 52.7964 62.3675 54.3795 62.0312C55.9627 61.6949 57.3511 61.1408 58.544 60.3692C59.7372 59.5973 60.6818 58.5885 61.378 57.3427C62.0739 56.0972 62.4219 54.5573 62.4219 52.7232C62.4219 51.3935 62.2229 50.2279 61.8253 49.2268C61.4276 48.2256 60.8539 47.3353 60.1043 46.5559C59.355 45.7763 58.4561 45.0772 57.4085 44.458C56.3606 43.8391 55.1788 43.2545 53.8632 42.7043C52.8995 42.3067 52.0354 41.921 51.2704 41.5465C50.5057 41.172 49.8554 40.79 49.3202 40.4001C48.7847 40.0104 48.3716 39.5976 48.081 39.162C47.7905 38.7263 47.6452 38.2336 47.6452 37.6832C47.6452 37.1788 47.775 36.7243 48.0351 36.3193C48.2951 35.9142 48.6625 35.5665 49.1366 35.2761C49.6108 34.9856 50.192 34.7603 50.8805 34.5996C51.5687 34.4392 52.3337 34.3589 53.1749 34.3589C53.7869 34.3589 54.4332 34.4049 55.1137 34.4965C55.7945 34.5882 56.479 34.7295 57.1675 34.9207C57.8558 35.1117 58.5249 35.3524 59.1751 35.643C59.8251 35.9333 60.4257 36.2696 60.9763 36.6516V29.7966C59.8597 29.3686 58.6396 29.0515 57.3166 28.8451C55.9935 28.6387 54.4752 28.5356 52.7619 28.5356C51.0181 28.5356 49.3661 28.7229 47.8059 29.0974C46.2456 29.4717 44.8726 30.0563 43.6871 30.8511C42.5016 31.6461 41.5647 32.6587 40.8762 33.8891C40.188 35.1194 39.8438 36.5905 39.8438 38.3024C39.8438 40.488 40.4746 42.3527 41.7369 43.8965C42.9988 45.44 44.9145 46.7469 47.4845 47.8168C48.4941 48.2296 49.4349 48.6344 50.3067 49.0321C51.1788 49.4294 51.9321 49.842 52.5669 50.2699C53.2018 50.6978 53.7027 51.164 54.0698 51.6684C54.4369 52.1728 54.6205 52.746 54.6205 53.3881C54.6205 53.8617 54.5057 54.3013 54.2762 54.7063C54.047 55.1112 53.6988 55.4628 53.2323 55.7609C52.7659 56.0589 52.1844 56.2919 51.4885 56.46C50.7925 56.6281 49.9779 56.7123 49.0447 56.7123C47.4539 56.7123 45.8785 56.4334 44.3182 55.8754C42.7577 55.3175 41.3121 54.4808 39.9813 53.3649ZM27.753 35.1077H37.1875V29.0669H10.8906V35.1077H20.2791V62.0044H27.753V35.1077Z" fill="white"/>
</g>
</svg>
