<svg width="54" height="66" viewBox="0 0 54 66" fill="none" xmlns="http://www.w3.org/2000/svg">
<g id="Vector">
<path d="M0.327026 7.0884C6.609 2.11545 14.1988 -0.240151 21.7895 0.0215832V4.47105C15.7691 4.20932 9.48797 5.77973 4.51471 9.44397L0.327026 7.0884Z" fill="url(#paint0_linear_323_331)"/>
<path d="M24.6684 0.283327C31.9967 1.06853 38.8018 4.47107 44.0366 9.96748L40.896 13.1083C36.4468 8.65881 30.9504 5.77974 24.6684 4.7328V0.283327Z" fill="url(#paint1_linear_323_331)"/>
<path d="M53.4591 31.4296C53.1975 24.6245 50.5801 17.8194 46.1309 12.0613L42.9894 15.2021C46.654 20.1751 48.7483 25.6715 49.0098 31.4296H53.4591Z" fill="url(#paint2_linear_323_331)"/>
<path d="M53.4591 34.5704C53.1975 41.3755 50.5801 48.1805 46.1309 53.9387L42.9894 50.7978C46.654 45.8249 48.7483 40.3285 49.0098 34.5704H53.4591Z" fill="url(#paint3_linear_323_331)"/>
<path d="M24.6684 65.7167C31.7351 64.9315 38.8018 61.529 44.0366 56.0326L40.896 52.8918C36.4468 57.6029 30.688 60.482 24.6684 61.2672V65.7167Z" fill="url(#paint4_linear_323_331)"/>
<path d="M21.7895 65.9785C14.1988 66.2401 6.609 63.8846 0.327026 58.9117L4.51471 56.5561C9.74954 60.2203 15.7691 61.7907 21.7895 61.529V65.9785Z" fill="url(#paint5_linear_323_331)"/>
<path d="M20.5941 14.8091C23.3915 14.8091 25.9735 15.2855 28.34 16.2384C30.7065 17.1605 32.7351 18.4515 34.426 20.1113C36.147 21.7712 37.4841 23.723 38.4372 25.9668C39.3904 28.1799 39.8665 30.5774 39.8665 33.1594C39.8665 35.7413 39.3904 38.1542 38.4372 40.3981C37.4841 42.6112 36.147 44.5476 34.426 46.2075C32.7351 47.8673 30.7065 49.1736 28.34 50.1265C25.9735 51.0486 23.3915 51.5097 20.5941 51.5097C17.7666 51.5097 15.1687 51.0486 12.8022 50.1265C10.4658 49.1736 8.45312 47.8673 6.76227 46.2075C5.07141 44.5476 3.75029 42.6112 2.79714 40.3981C1.84398 38.1542 1.36784 35.7413 1.36784 33.1594C1.36784 30.5774 1.84398 28.1799 2.79714 25.9668C3.75029 23.723 5.07141 21.7712 6.76227 20.1113C8.45312 18.4515 10.4658 17.1605 12.8022 16.2384C15.1687 15.2855 17.7666 14.8091 20.5941 14.8091ZM20.5941 23.5693C19.2721 23.5693 18.0122 23.8152 16.8134 24.307C15.6457 24.7681 14.6154 25.4289 13.7243 26.2896C12.8332 27.1503 12.1257 28.1646 11.6034 29.3326C11.0812 30.5006 10.8196 31.7762 10.8196 33.1594C10.8196 34.5426 11.0812 35.8182 11.6034 36.9862C12.1257 38.1542 12.8332 39.1685 13.7243 40.0292C14.6154 40.8899 15.6457 41.5661 16.8134 42.0579C18.0122 42.519 19.2721 42.7495 20.5941 42.7495C21.9161 42.7495 23.161 42.519 24.3287 42.0579C25.5275 41.5661 26.5729 40.8899 27.4639 40.0292C28.3861 39.1685 29.1087 38.1542 29.6309 36.9862C30.1532 35.8182 30.4147 34.5426 30.4147 33.1594C30.4147 31.7762 30.1532 30.5006 29.6309 29.3326C29.1087 28.1646 28.3861 27.1503 27.4639 26.2896C26.5729 25.4289 25.5275 24.7681 24.3287 24.307C23.161 23.8152 21.9161 23.5693 20.5941 23.5693Z" fill="black"/>
</g>
<defs>
<linearGradient id="paint0_linear_323_331" x1="26.8931" y1="0.00195312" x2="26.8931" y2="65.9981" gradientUnits="userSpaceOnUse">
<stop stop-color="#1E90FF"/>
<stop offset="1" stop-color="#FF1E56"/>
</linearGradient>
<linearGradient id="paint1_linear_323_331" x1="26.8931" y1="0.00195312" x2="26.8931" y2="65.9981" gradientUnits="userSpaceOnUse">
<stop stop-color="#1E90FF"/>
<stop offset="1" stop-color="#FF1E56"/>
</linearGradient>
<linearGradient id="paint2_linear_323_331" x1="26.8931" y1="0.00195312" x2="26.8931" y2="65.9981" gradientUnits="userSpaceOnUse">
<stop stop-color="#1E90FF"/>
<stop offset="1" stop-color="#FF1E56"/>
</linearGradient>
<linearGradient id="paint3_linear_323_331" x1="26.8931" y1="0.00195312" x2="26.8931" y2="65.9981" gradientUnits="userSpaceOnUse">
<stop stop-color="#1E90FF"/>
<stop offset="1" stop-color="#FF1E56"/>
</linearGradient>
<linearGradient id="paint4_linear_323_331" x1="26.8931" y1="0.00195312" x2="26.8931" y2="65.9981" gradientUnits="userSpaceOnUse">
<stop stop-color="#1E90FF"/>
<stop offset="1" stop-color="#FF1E56"/>
</linearGradient>
<linearGradient id="paint5_linear_323_331" x1="26.8931" y1="0.00195312" x2="26.8931" y2="65.9981" gradientUnits="userSpaceOnUse">
<stop stop-color="#1E90FF"/>
<stop offset="1" stop-color="#FF1E56"/>
</linearGradient>
</defs>
</svg>
