<svg width="67" height="68" viewBox="0 0 67 68" fill="none" xmlns="http://www.w3.org/2000/svg">
<g id="Vector">
<path d="M33.4008 1.45918L0.828472 33.9263L33.4008 66.5434L65.8235 33.9263L33.4008 1.45918Z" fill="#019833"/>
<path d="M33.3951 4.44053V1.69972L1.0422 33.9322H3.81446L33.3951 4.44053Z" fill="#66FE98"/>
<path d="M33.3951 4.44053V1.69972L65.8485 33.9322H62.8486L33.3951 4.44053Z" fill="#45FE02"/>
<path d="M33.3951 63.5621V66.5963L1.0422 33.9322H3.81446L33.3951 63.5621Z" fill="#017D17"/>
<path d="M33.3951 63.5621V66.5963L65.8485 33.9322H62.8486L33.3951 63.5621Z" fill="#005D04"/>
<path d="M17.1431 60.4052H10.8716L8.42234 58.0183V12.4415H6.47843L4.81425 10.775V5.68035L6.53824 3.81043H28.4716L30.4437 5.78476V10.6203L28.805 12.6176H27.1478V28.0239L42.7421 12.6176H41.8714L40.0577 10.6615V5.53417L41.8397 3.89835H63.9786L65.7307 5.65276V10.5022L17.1431 60.4052Z" fill="black"/>
<path d="M33.3951 67.0441L0.327026 33.9322L33.3951 0.955933L66.327 33.9322L33.3951 67.0441ZM1.33997 33.9322L33.3951 66.0304L65.3136 33.9322L33.3951 1.97042L1.33997 33.9322Z" fill="black"/>
<path d="M28.1901 6.8191L29.1644 6.18978L28.169 5.15647H7.07037L5.99839 6.23V10.2905L7.1869 11.4806L7.75383 10.2905L7.00824 9.54367V6.68117L7.56743 6.18334L27.4871 6.20783L28.1901 6.8191Z" fill="#FEFEFE"/>
<path d="M11.0154 10.1941V57.7177L11.6837 58.354L11.1482 59.3659L9.74285 57.9817V11.4262L11.0154 10.1941Z" fill="#FEFEFE"/>
<path d="M7.60662 10.1941L7.1869 11.4806H9.73564L11.2101 10.1941H7.60662Z" fill="#808080"/>
<path d="M43.2608 10.2106L42.3695 9.58105V7.02974L43.3018 6.0962H62.7535L63.4993 7.09187L64.5608 6.25424L63.4681 5.25599H42.5559L41.5149 6.29832V10.3901L42.6111 11.3821M25.6947 31.0558L23.6634 35.9914L46.5953 12.9664L46.4832 10.181L25.6947 31.0558Z" fill="#FEFEFE"/>
<path d="M28.1442 6.8008L29.1644 6.18978V10.1941L27.9998 11.3602H25.7368L25.6947 31.0558L23.6712 35.98V10.1941H27.4504L28.1535 9.62204L28.1442 6.8008Z" fill="#808080"/>
<path d="M63.4302 6.81395L64.5608 6.25424V9.91079L16.4166 59.3659L11.1482 59.3659L11.6623 58.394L15.7086 58.3942L63.4372 9.04583L63.4302 6.81395Z" fill="#808080"/>
<path d="M46.4832 10.181L45.3107 11.3589L42.6111 11.3821L43.2703 10.1988C43.2923 10.1988 46.4832 10.181 46.4832 10.181Z" fill="#808080"/>
<path d="M43.1169 6.05804L42.3719 6.80389V9.54289L43.0244 10.1962H46.4719V12.8426L23.6658 35.9898V10.2289H27.4559L28.2334 9.45034V6.6786L27.5157 6.12327H7.56975L6.91723 6.77682V9.60812L7.58058 10.2725H11.05V57.7105L11.7025 58.3638H15.645L63.438 8.98189V6.80389L62.6929 6.05804H43.1169Z" fill="#CCCCCC"/>
<path d="M15.6718 58.427H11.6764L10.9871 57.7366V10.3354H7.55454L6.85432 9.63416V6.75053L7.54371 6.06036H27.5373L28.2966 6.64766V9.47638L27.4822 10.2918H23.7287V35.8362L46.409 12.8166V10.2594H42.9984L42.309 9.56893V6.77785L43.0906 5.99488H62.7189L63.5009 6.77785V9.00742L63.4834 9.02572L15.6718 58.427ZM11.7288 58.3009H15.6184L63.3751 8.95663V6.82993L62.6669 6.12095H43.143L42.4348 6.82993V9.51686L43.0504 10.1333H46.535V12.8684L23.6029 36.1435V10.166H27.4298L28.1705 9.42404V6.70953L27.4943 6.18617H7.59579L6.98014 6.80286V9.58208L7.60688 10.2096H11.1129V57.6842L11.7288 58.3009Z" fill="#808080"/>
<path d="M35.0198 38.0343C34.9835 38.0417 34.95 38.0588 34.9219 38.0833L33.9976 38.8781C33.97 38.9034 33.9494 38.9351 33.9378 38.9706L33.0133 41.5627C32.9854 41.6403 33.0045 41.7269 33.0623 41.786L33.7692 42.4937C33.8102 42.5331 33.8648 42.5545 33.9215 42.5537H36.7763C36.833 42.5545 36.8877 42.5331 36.9284 42.4937L37.6735 41.7424C37.6993 41.7166 37.7178 41.6846 37.7279 41.6498L38.5219 38.9217C38.5439 38.8464 38.523 38.7649 38.4675 38.7095L37.8529 38.0941C37.8122 38.0546 37.7573 38.0332 37.7008 38.0343H35.0634C35.049 38.0327 35.0343 38.0327 35.0198 38.0343ZM29.7888 45.3414C29.7086 45.3587 29.6455 45.4201 29.6256 45.4995L29.2722 46.9043C29.2435 47.0193 29.3134 47.1361 29.4284 47.1647C29.4449 47.1688 29.4616 47.1709 29.4787 47.1711H31.1591L26.9936 59.0795C26.956 59.1922 27.0166 59.3139 27.129 59.3515C27.1501 59.3587 27.1723 59.3626 27.195 59.3628H33.2579C33.3515 59.3641 33.4351 59.3046 33.4647 59.2156L33.8617 57.9361C33.8963 57.8227 33.8326 57.7025 33.7192 57.6677C33.6985 57.6615 33.6769 57.6582 33.655 57.6584H32.2847L36.4066 45.6248C36.4442 45.5121 36.3837 45.3904 36.2712 45.3528C36.2501 45.3456 36.2277 45.3417 36.2052 45.3414H29.8321C29.8177 45.3402 29.8032 45.3402 29.7888 45.3414ZM49.0822 45.385C49.0355 45.3948 48.9933 45.4196 48.9623 45.4559L47.7009 46.8824H45.6943L44.3565 45.4941C44.3165 45.4526 44.2619 45.4291 44.2044 45.4286H39.4137C39.3235 45.4288 39.243 45.4853 39.2124 45.5701L38.772 46.8881C38.7344 47.0005 38.7947 47.1222 38.9071 47.1601C38.9285 47.167 38.9507 47.1709 38.9731 47.1711H40.2565L36.2651 58.9488C36.2274 59.0615 36.288 59.1831 36.4004 59.221C36.4216 59.228 36.444 59.2319 36.4664 59.2321H41.567C41.6572 59.2319 41.7374 59.1754 41.7683 59.0906L42.1597 57.9415C42.1973 57.8291 42.137 57.7072 42.0246 57.6695C42.0032 57.6623 41.981 57.6587 41.9586 57.6584H41.0668L43.6117 49.6376H48.2175L45.3138 58.9545C45.279 59.0679 45.3426 59.188 45.4561 59.2226C45.477 59.229 45.4986 59.2321 45.5203 59.2321H50.4414C50.527 59.2314 50.6038 59.18 50.6373 59.1014L51.0777 58.0449C51.1215 57.9348 51.0676 57.8098 50.9575 57.7662C50.9333 57.7567 50.9078 57.7515 50.882 57.751H49.9902L52.5787 49.5941H56.9615L54.0142 58.9545C53.9796 59.0679 54.0433 59.188 54.1565 59.2226C54.1774 59.229 54.199 59.2321 54.2209 59.2321H59.626C59.7147 59.2326 59.7948 59.1785 59.8273 59.096L60.2677 57.9469C60.3084 57.8356 60.2512 57.7123 60.1398 57.6716C60.1163 57.6628 60.0916 57.6584 60.0666 57.6584H58.9951L62.2526 47.0678C62.2742 47.0007 62.2621 46.9278 62.2198 46.8716L61.2084 45.5103C61.1667 45.4572 61.1019 45.4268 61.0344 45.4286H57.1682C57.1087 45.4276 57.0517 45.4513 57.0105 45.4941L55.7923 46.8334H53.6607L52.3992 45.4505C52.358 45.4077 52.3007 45.384 52.2414 45.385H49.1255C49.1111 45.3837 49.0966 45.3837 49.0822 45.385Z" fill="#CCCCCC"/>
<path d="M33.4196 42.8566C33.5544 42.9866 33.7308 43.0577 33.9097 43.0577C33.9135 43.0577 33.9174 43.0577 33.9215 43.0575H36.7675C36.9588 43.0634 37.1398 42.9897 37.2865 42.8487L38.0298 42.0987C38.1159 42.0126 38.1791 41.9051 38.2118 41.7906L39.0056 39.0629C39.0791 38.8105 39.0095 38.5383 38.8238 38.3534L38.2028 37.7313C38.0648 37.5983 37.8836 37.5251 37.7008 37.5302H35.0814C35.0438 37.5282 35.0062 37.529 34.969 37.5328L34.9162 37.5411C34.795 37.5666 34.6818 37.6231 34.5934 37.7009L33.6689 38.496L33.6583 38.5056C33.5683 38.5875 33.5005 38.6912 33.4613 38.8064L32.5389 41.3925C32.4463 41.6506 32.5108 41.9435 32.7057 42.142L33.4196 42.8566ZM37.5843 38.538L37.9903 38.9446L37.2643 41.4392L36.6595 42.0497L34.0381 42.05L33.549 41.5601L34.3887 39.2063L35.1657 38.538H37.5843Z" fill="black"/>
<path d="M62.6243 46.571L61.6129 45.2097L61.6039 45.1981C61.4662 45.0233 61.2533 44.922 61.0303 44.9248H57.1765C56.9762 44.9202 56.7862 45.0011 56.6482 45.1434L55.5695 46.3296H53.8832L52.7715 45.111L52.7612 45.0999C52.6235 44.9576 52.433 44.8815 52.2414 44.8813H49.1436C49.1062 44.8792 49.0683 44.88 49.0312 44.8838L48.9791 44.8918C48.8241 44.924 48.6821 45.0084 48.5849 45.1221L47.4737 46.3786H45.9085L44.7187 45.1437C44.586 45.0063 44.3998 44.9264 44.2044 44.9248H39.4122C39.1118 44.9256 38.8414 45.1159 38.7388 45.3984L38.2943 46.7274C38.1682 47.1031 38.3711 47.5115 38.747 47.6378C38.8182 47.6615 38.8924 47.6741 38.9731 47.6749H39.5537L35.7871 58.7892C35.6618 59.1643 35.8647 59.5724 36.24 59.6988C36.3115 59.7225 36.3857 59.7351 36.4664 59.7359H41.5685C41.8691 59.7351 42.1398 59.5446 42.2453 59.253L42.6377 58.1016C42.7632 57.7262 42.5603 57.3181 42.1847 57.1918C42.1133 57.1678 42.039 57.1552 41.9586 57.1544H41.7552L43.9804 50.1417H47.5325L44.8316 58.807C44.7159 59.186 44.9299 59.5884 45.3078 59.7042C45.3777 59.7256 45.4525 59.7343 45.5203 59.7359H50.4458C50.7319 59.7336 50.9892 59.5619 51.1024 59.2953L51.5464 58.2305C51.692 57.8621 51.5113 57.4437 51.1447 57.2983C51.063 57.2655 50.9771 57.2485 50.882 57.247H50.6788L52.9473 50.0981H56.2744L53.5321 58.8075C53.4168 59.1862 53.6308 59.5887 54.0085 59.7042C54.0768 59.7253 54.148 59.7359 54.2171 59.7359H59.6226C59.9212 59.7341 60.1883 59.5549 60.2978 59.2762L60.741 58.1199C60.8769 57.7479 60.6851 57.3344 60.313 57.1982C60.2349 57.1696 60.1527 57.1549 60.0666 57.1544H59.6773L62.7316 47.224C62.8043 47.0012 62.7635 46.7561 62.6243 46.571ZM58.3129 58.1622H59.6456L59.4285 58.7281H54.6136L57.6485 49.0903H52.2097L49.3016 58.255H50.4442L50.247 58.7281H45.9119L48.9023 49.1339H43.2428L40.3782 58.1622H41.5523L41.3594 58.7281H36.8719L40.9593 46.6671H39.3771L39.6226 45.9326H44.0794L45.4801 47.3864H47.928L49.2518 45.889L52.1172 45.8888L53.4382 47.3374H56.0153L57.2928 45.9326H60.8944L61.7287 47.0556L58.3129 58.1622Z" fill="black"/>
<path d="M33.8674 57.1861C33.7978 57.1647 33.7282 57.1562 33.655 57.1544H32.9898L36.8844 45.7851C37.0104 45.4092 36.8073 45.0011 36.4314 44.8748C36.3605 44.8511 36.2862 44.8385 36.2053 44.8377H29.8502C29.8126 44.8356 29.7749 44.8364 29.7375 44.8403L29.6826 44.849C29.4129 44.907 29.2036 45.1094 29.1368 45.3765L28.7831 46.7826C28.6875 47.1668 28.9221 47.5573 29.3075 47.654C29.3622 47.6674 29.4186 47.6746 29.4787 47.6749H30.4488L26.5159 58.9194C26.3898 59.2953 26.5933 59.7034 26.9686 59.8295C27.04 59.8532 27.1143 59.8658 27.195 59.8666H33.2613C33.5717 59.8666 33.8447 59.6699 33.9461 59.3649L34.3436 58.0833C34.4594 57.7046 34.2454 57.3019 33.8674 57.1861ZM27.6047 58.8588L31.8691 46.6671H29.8515L30.0583 45.8455H35.7982L31.5793 58.1622H33.2639L33.0478 58.8588H27.6047Z" fill="black"/>
</g>
</svg>
